<?xml version="1.0" encoding="UTF-8"?>
<svg version="1.1" xmlns="http://www.w3.org/2000/svg" width="692" height="689">
<path d="M0 0 C228.36 0 456.72 0 692 0 C692 227.37 692 454.74 692 689 C463.64 689 235.28 689 0 689 C0 461.63 0 234.26 0 0 Z " fill="#FEFEFD" transform="translate(0,0)"/>
<path d="M0 0 C1.70779973 1.62449243 3.37049444 3.29698291 5 5 C6.26826028 6.27340118 7.5393441 7.54399348 8.8125 8.8125 C18.20833333 18.20833333 27.60416667 27.60416667 37 37 C37.90878906 37.84691406 37.90878906 37.84691406 38.8359375 38.7109375 C40 40 40 40 40 42 C40.99 42.33 41.98 42.66 43 43 C45.41971901 45.49207856 47.454386 48.30502196 49.5625 51.0625 C50.44711914 52.17141602 50.44711914 52.17141602 51.34960938 53.30273438 C54.15582808 56.95177644 56.23308405 59.95608836 57.21484375 64.49609375 C57.47394531 65.65238281 57.73304688 66.80867188 58 68 C58.99 68.33 59.98 68.66 61 69 C62.28125 71.625 62.28125 71.625 63.5 75 C63.93054688 76.18980469 64.36109375 77.37960937 64.8046875 78.60546875 C65.19914063 79.72566406 65.59359375 80.84585938 66 82 C66.29132812 82.75925781 66.58265625 83.51851563 66.8828125 84.30078125 C76.61331091 110.67555327 73.52589885 141.06515953 64 167 C63.03386572 169.01657744 62.04469357 171.02297816 61 173 C60.34 173 59.68 173 59 173 C58.76667969 174.02222656 58.53335938 175.04445313 58.29296875 176.09765625 C57.1267789 180.16245645 54.96333713 183.19282409 52.3125 186.4375 C51.63441284 187.28924805 51.63441284 187.28924805 50.94262695 188.15820312 C49.64098662 189.78287998 48.32390984 191.39345178 47 193 C46.41992188 193.71285156 45.83984375 194.42570313 45.2421875 195.16015625 C38.815848 202.76519621 31.46574995 209.6008037 24.37890625 216.58203125 C22.01488293 218.98487269 19.784119 221.46553269 17.5625 224 C14.23388839 227.72605777 10.90040717 230.89740338 7 234 C4.29175432 236.57613613 1.86518012 239.16515435 -0.5 242.0625 C-2.84038392 244.81245111 -5.15908348 246.7982897 -8 249 C-10.66518085 251.53192181 -13.06251757 254.07732436 -15.375 256.9375 C-17.74500172 259.84410589 -20.42537383 262.1673667 -23.30078125 264.5625 C-26.46524175 267.23956084 -29.29827362 270.08049647 -31.8125 273.375 C-33.65559404 275.58671285 -35.38926839 277.26980228 -37.5625 279.125 C-44.74596106 285.27457975 -51.43420277 291.99824245 -57.4571991 299.28640747 C-59.0719661 301.07993291 -60.77633004 302.59368975 -62.6184082 304.15185547 C-67.26283491 308.17160787 -71.59069359 312.46419015 -75.91796875 316.8203125 C-76.73824051 317.64199921 -77.55851227 318.46368591 -78.40364075 319.31027222 C-81.0006398 321.91282151 -83.59412841 324.51883653 -86.1875 327.125 C-87.93921997 328.88174294 -89.69117102 330.63825549 -91.44335938 332.39453125 C-95.30102105 336.26196463 -99.1564763 340.13158179 -103.00993347 344.00320435 C-105.33714662 346.33828663 -107.66840049 348.66929766 -110 351 C-110.82624878 351.82624878 -111.65249756 352.65249756 -112.50378418 353.50378418 C-161 402 -161 402 -163.70983887 404.67468262 C-166.01939747 406.92234637 -166.01939747 406.92234637 -167.8125 409.375 C-170.27565121 412.33078145 -172.99621522 414.67706134 -175.9140625 417.171875 C-179.99248137 420.74621963 -183.71524361 424.6831247 -187.5 428.5625 C-196.49379932 437.33145434 -196.49379932 437.33145434 -202 439 C-202 439.66 -202 440.32 -202 441 C-231.00869542 458.15363067 -263.34801906 467.0691251 -297 460 C-302.11377775 458.61614471 -307.06581641 456.91940747 -312 455 C-312.96873047 454.62681641 -312.96873047 454.62681641 -313.95703125 454.24609375 C-321.70807465 451.20377099 -329.06267913 447.62655608 -336.1875 443.3125 C-336.77974365 442.96356689 -337.3719873 442.61463379 -337.98217773 442.25512695 C-342.35519313 439.4975979 -346.12889996 436.15967065 -349.90664673 432.6496582 C-350.47506401 432.12283762 -351.04348129 431.59601704 -351.62912333 431.05323219 C-358.12121133 425.00235129 -364.4151168 418.75605716 -370.70068359 412.4921875 C-372.01438609 411.18641265 -373.32825948 409.88080971 -374.64228821 408.57536316 C-378.8979582 404.3455391 -383.14851368 400.11059637 -387.3984375 395.875 C-388.86980418 394.40900272 -390.3411749 392.9430095 -391.81254959 391.47702026 C-397.9247536 385.38636235 -404.03555587 379.29430385 -410.14266014 373.1985321 C-418.87031659 364.48718848 -427.60643092 355.78452262 -436.3542093 347.09338379 C-442.52532573 340.96086637 -448.68692259 334.81888859 -454.84141982 328.66969299 C-458.5121492 325.00262189 -462.18697067 321.33987955 -465.87202072 317.68719482 C-469.32543334 314.26369651 -472.76696662 310.8287011 -476.19952965 307.38430214 C-477.46305138 306.12055849 -478.73089351 304.86111821 -480.00323296 303.60625267 C-481.73339407 301.89857933 -483.44760746 300.17637008 -485.15853882 298.44946289 C-485.92585093 297.70297391 -485.92585093 297.70297391 -486.7086643 296.94140434 C-488.0822506 295.53578186 -488.0822506 295.53578186 -490 293 C-489.86871036 290.27666243 -489.28334459 289.34494125 -487.5625 287.25 C-486 286 -486 286 -484 286 C-483.78475174 285.45943466 -483.56950348 284.91886932 -483.34773254 284.36192322 C-481.52258347 281.16331976 -479.03652071 278.77462926 -476.4362793 276.20922852 C-475.58469742 275.35720856 -475.58469742 275.35720856 -474.71591187 274.48797607 C-472.84004976 272.6135058 -470.95720172 270.74622094 -469.07421875 268.87890625 C-467.76582404 267.57424461 -466.45787237 266.26913852 -465.15034485 264.96360779 C-461.70594659 261.52684287 -458.25559057 258.09612025 -454.80395508 254.66662598 C-451.30387772 251.18693781 -447.8093834 247.70165329 -444.31445312 244.21679688 C-438.66144537 238.58135783 -433.00506874 232.94932744 -427.34410095 227.32188416 C-425.89558825 225.88173778 -424.44777681 224.44088617 -423 223 C-422.10380447 222.11477158 -421.20760895 221.22954315 -420.28425598 220.31748962 C-417.8903067 217.95309833 -417.8903067 217.95309833 -415.5 215 C-412.45082438 211.34098926 -409.3427434 208.03287954 -405.5625 205.125 C-402.82073926 202.85134475 -400.73252921 200.38164456 -398.46484375 197.65234375 C-397 196 -397 196 -394.5625 194.0625 C-392.34190822 192.27519442 -390.85169065 190.67833961 -389.0625 188.5 C-370.53952314 167.06911494 -342.10702029 152.83035729 -314 150 C-298.94266088 148.9446671 -284.47299092 149.55558049 -270 154 C-269.28577881 154.21817383 -268.57155762 154.43634766 -267.83569336 154.66113281 C-253.98896134 159.07886392 -241.06862938 165.54554574 -230 175 C-229.154375 175.71929687 -228.30875 176.43859375 -227.4375 177.1796875 C-221.89543181 182.04631613 -216.71448554 187.25510958 -211.53515625 192.5 C-209.49904013 194.5078803 -207.4545474 196.3725706 -205.25 198.1875 C-202.81856227 200.19446208 -200.77770516 202.32740601 -198.73667908 204.72888184 C-195.29763344 208.70238341 -191.68874347 212.4467157 -187.96313477 216.15039062 C-186.96673729 217.14700714 -186.96673729 217.14700714 -185.95021057 218.16375732 C-183.7829744 220.33030421 -181.61223229 222.49330062 -179.44140625 224.65625 C-177.926615 226.16917356 -176.41204632 227.68232 -174.89768982 229.19567871 C-170.9330512 233.15651974 -166.96541749 237.11434702 -162.99713135 241.0715332 C-158.93961743 245.11877339 -154.88497254 249.16888565 -150.83007812 253.21875 C-142.88950839 261.14863112 -134.9457684 269.07532821 -127 277 C-123.72724339 275.44938843 -121.58827146 273.80329895 -119.0625 271.1875 C-118.41410156 270.52105469 -117.76570313 269.85460937 -117.09765625 269.16796875 C-116.40542969 268.45253906 -115.71320313 267.73710937 -115 267 C-113.33415712 265.33250995 -111.66732596 263.66600711 -110 262 C-108.40445847 260.39750208 -106.81014463 258.79378788 -105.21577454 257.19012451 C-102.73560005 254.69654437 -100.25274311 252.2056422 -97.76977539 249.71484375 C-96.45866895 248.39866754 -95.14845542 247.0816013 -93.83911133 245.76367188 C-91.94325097 243.85573296 -90.04422383 241.95099731 -88.14453125 240.046875 C-87.55807327 239.45525574 -86.9716153 238.86363647 -86.36738586 238.25408936 C-82.22774193 234.11387096 -82.22774193 234.11387096 -80 233 C-81.56667403 229.22807387 -83.91954746 226.83644155 -86.796875 223.97265625 C-87.50375458 223.266464 -87.50375458 223.266464 -88.22491455 222.54600525 C-89.22114543 221.55278746 -90.21979766 220.56199318 -91.22070312 219.57348633 C-92.73620776 218.0761271 -94.24366692 216.57103266 -95.75 215.06445312 C-101.26561376 209.54997017 -101.26561376 209.54997017 -107.12646484 204.41113281 C-109.46689159 202.44732189 -111.36976828 200.60034643 -113.3046875 198.26171875 C-117.34119704 193.53396527 -121.70761779 189.18226532 -126.125 184.8125 C-126.91003906 184.03197266 -127.69507813 183.25144531 -128.50390625 182.44726562 C-130.00920774 180.95084872 -131.51580938 179.45573814 -133.02392578 177.9621582 C-134.64980635 176.3477275 -136.26465584 174.72361531 -137.875 173.09375 C-140.05061113 170.88003032 -140.05061113 170.88003032 -142.875 168.6875 C-145.96581468 166.15507678 -148.49113575 163.28170982 -151.0703125 160.23828125 C-152.4464703 158.64204963 -153.86284118 157.08012355 -155.3046875 155.54296875 C-165.43189359 144.7350816 -168.37584834 135.20357175 -168.125 120.5 C-168.11597656 119.48679687 -168.10695313 118.47359375 -168.09765625 117.4296875 C-168.07429007 114.95287199 -168.04153168 112.47656621 -168 110 C-167.34 110 -166.68 110 -166 110 C-165.896875 109.01 -165.79375 108.02 -165.6875 107 C-164.17080585 97.15133672 -159.46612529 91.35343271 -153 84 C-151.80503906 82.62134766 -151.80503906 82.62134766 -150.5859375 81.21484375 C-146.92671591 77.05997509 -143.33293597 73.4490702 -139 70 C-137.31002677 68.35697047 -135.64783606 66.68528688 -134 65 C-132.58471612 63.58195189 -131.16789695 62.16543532 -129.75 60.75 C-128.9765625 59.9765625 -128.203125 59.203125 -127.40625 58.40625 C-125.02083333 56.02083333 -122.63541667 53.63541667 -120.25 51.25 C-119.51088379 50.51015869 -118.77176758 49.77031738 -118.01025391 49.00805664 C-116.8124096 47.81152161 -115.61236188 46.61717615 -114.40771484 45.42749023 C-112.33265125 43.37657312 -110.4653299 41.33869751 -108.625 39.0625 C-106.25933865 36.15377803 -103.5637945 33.88077609 -100.68359375 31.49609375 C-98.76415659 29.86628903 -98.76415659 29.86628903 -96.5625 27.0625 C-94.56254438 24.67230914 -92.82549053 22.93148742 -90.47265625 20.96484375 C-87.17363495 18.11652274 -84.12559094 15.12230736 -81.1171875 11.96875 C-63.01005515 -6.9856802 -63.01005515 -6.9856802 -51 -11 C-50.30648438 -11.27328125 -49.61296875 -11.5465625 -48.8984375 -11.828125 C-31.57481363 -17.57809377 -13.71248193 -10.38505975 0 0 Z " fill="#F07F1B" transform="translate(618,220)"/>
<path d="M0 0 C0.64066406 0.15033691 1.28132813 0.30067383 1.94140625 0.45556641 C25.9082745 6.10138199 46.54934848 18.44679063 64.16015625 35.3359375 C66.91518856 37.9912018 66.91518856 37.9912018 69.71484375 40.16796875 C72.58273636 42.46718522 74.67857014 45.15624842 77 48 C79.55612636 50.68720976 82.1199811 53.09748464 85 55.4375 C87.23074738 57.34293006 88.79291602 58.8783495 90.5625 61.125 C92.78944216 64.06703374 92.78944216 64.06703374 95.625 65.5625 C98.52544377 67.31803175 99.33222271 69.08138975 101 72 C103.52184518 74.72631912 106.11677887 77.09488284 109 79.4375 C112.07903881 82.06751232 114.45078401 84.8625034 117 88 C119.51606095 90.64508971 122.02917766 93.02346899 124.875 95.3125 C127.14797193 97.17531159 129.04208086 99.13055227 130.9375 101.375 C136.33490365 107.71846542 142.38146731 113.46967167 148.3046875 119.31616211 C149.81441802 120.81567412 151.30327751 122.33613324 152.7890625 123.859375 C154.93277693 126.11330086 154.93277693 126.11330086 157.75 127.5625 C160 129 160 129 160.8125 131.1875 C160.874375 131.785625 160.93625 132.38375 161 133 C160.01 133.33 159.02 133.66 158 134 C158 134.66 158 135.32 158 136 C156.50827312 137.4722805 156.50827312 137.4722805 154.45915222 139.17294312 C150.32955973 142.68705611 146.47520895 146.38936195 142.65356445 150.23291016 C141.96792419 150.91840439 141.28228394 151.60389862 140.5758667 152.31016541 C138.3359563 154.55076594 136.09959901 156.79487668 133.86328125 159.0390625 C132.29507544 160.60913669 130.72664625 162.1789878 129.15800476 163.74862671 C125.04618978 167.86424213 120.93738536 171.98285019 116.82922363 176.10211182 C112.65033199 180.29123938 108.46860634 184.4775358 104.28710938 188.6640625 C97.53583041 195.42411088 90.78627782 202.18587712 84.03898621 208.9499054 C83.14991074 209.84114861 83.14991074 209.84114861 82.24287415 210.75039673 C81.68928537 211.30598896 81.1356966 211.86158119 80.56533241 212.43400955 C79.1102001 213.88975358 77.64658507 215.33700488 76.18229675 216.78353882 C73.95648926 218.95431545 73.95648926 218.95431545 72.125 221.4375 C69.86616771 224.16138599 67.43180978 226.27310905 64.7265625 228.53515625 C60.5980395 232.03786241 57.07311001 236.00284476 53.625 240.15625 C51.98984173 242.01152573 50.2621023 243.74679757 48.51010132 245.49090576 C46.85221078 247.14769066 45.2062232 248.81571991 43.56176758 250.48583984 C40.07289346 254.028506 36.57456346 257.56167678 33.07299805 261.09179688 C31.57221837 262.60765081 30.07414384 264.12618801 28.57885742 265.64746094 C12.71282165 281.78122622 12.71282165 281.78122622 4 287 C3.39599365 287.38478516 2.7919873 287.76957031 2.16967773 288.16601562 C-24.64347392 305.0162146 -55.09308359 309.69828869 -85.98364258 302.73413086 C-99.31943284 299.53218485 -111.42158162 294.39700111 -123 287 C-123.98661621 286.369729 -124.97323242 285.73945801 -125.98974609 285.09008789 C-137.1107017 277.56401448 -146.19754688 268.25440308 -155.5625 258.6875 C-157.18980414 257.04007563 -158.81805401 255.39358489 -160.44726562 253.74804688 C-163.42065976 250.74227672 -166.38867379 247.7314262 -169.34985352 244.71362305 C-170.56638504 243.4755679 -171.78308229 242.23767555 -173 241 C-173.74997757 240.2358226 -173.74997757 240.2358226 -174.5151062 239.45620728 C-176.39904677 237.55062665 -178.24043951 235.81650669 -180.375 234.1875 C-184.55018925 230.70817563 -187.89970285 226.46481153 -191.41796875 222.3359375 C-192.784177 220.76737747 -192.784177 220.76737747 -195 219 C-198.18297125 219.34258466 -199.82521193 220.45464163 -202.03686523 222.69628906 C-202.60102646 223.26067688 -203.16518768 223.8250647 -203.7464447 224.40655518 C-204.64345848 225.32679474 -204.64345848 225.32679474 -205.55859375 226.265625 C-206.49784447 227.21124298 -206.49784447 227.21124298 -207.45606995 228.17596436 C-209.45703464 230.1937067 -211.44734266 232.22160278 -213.4375 234.25 C-214.77339394 235.60094763 -216.10997514 236.95121603 -217.44726562 238.30078125 C-219.91372079 240.79170655 -222.376083 243.28652755 -224.83374023 245.78613281 C-227.54139223 248.53866554 -230.26573412 251.27387091 -233 254 C-233.70382813 254.70382812 -234.40765625 255.40765625 -235.1328125 256.1328125 C-238.08854167 259.08854167 -241.04427083 262.04427083 -244 265 C-243.34 265 -242.68 265 -242 265 C-240.44921875 266.57421875 -240.44921875 266.57421875 -238.6875 268.6875 C-234.24252267 273.90074502 -229.52420058 278.48931458 -224.2578125 282.86328125 C-222.29684679 284.71907406 -220.59611674 286.59970507 -218.84619141 288.64892578 C-215.1536407 292.89071507 -211.23030875 296.83217866 -207.203125 300.75390625 C-205.73523916 302.19942523 -204.26780436 303.64540234 -202.80078125 305.09179688 C-200.51870819 307.33669701 -198.23374519 309.57833718 -195.94091797 311.81225586 C-193.70660898 313.99198231 -191.48529518 316.18428754 -189.265625 318.37890625 C-188.58123352 319.03951553 -187.89684204 319.70012482 -187.19171143 320.38075256 C-182.34622857 325.19942148 -179.1328708 329.34605292 -178.875 336.4375 C-181.57257882 344.97983292 -190.48085686 351.61551294 -196.6953125 357.79296875 C-197.60578339 358.70202469 -198.51625427 359.61108063 -199.45431519 360.54768372 C-201.85359459 362.94318302 -204.255859 365.335666 -206.65881348 367.72747803 C-209.09858186 370.15698845 -211.53550345 372.58935065 -213.97265625 375.02148438 C-218.30614527 379.34536596 -222.64150014 383.6673661 -226.98077393 387.98544312 C-228.63702826 389.63786758 -230.28447465 391.29829659 -231.92919922 392.9621582 C-234 395 -234 395 -236.5625 397 C-239.07420101 398.91780818 -239.07420101 398.91780818 -240.9375 401.4375 C-243.32755991 404.40696837 -246.07596788 406.56330656 -249 409 C-249.61875 409.78375 -250.2375 410.5675 -250.875 411.375 C-252.62903909 413.54175417 -254.13484889 415.01719092 -256.24609375 416.7734375 C-260.25851931 420.24415839 -264.000444 423.93567207 -267.73046875 427.703125 C-268.33296448 428.31116974 -268.93546021 428.91921448 -269.55621338 429.54568481 C-272.07461272 432.09162281 -274.58921115 434.64124434 -277.09936523 437.1953125 C-278.95115028 439.07733757 -280.80914101 440.95305918 -282.66796875 442.828125 C-283.51031319 443.69065887 -283.51031319 443.69065887 -284.36967468 444.57061768 C-287.8536047 448.07657565 -291.22401963 451.46411509 -296.24609375 452.43359375 C-296.96925781 452.43488281 -297.69242187 452.43617188 -298.4375 452.4375 C-299.15808594 452.45683594 -299.87867188 452.47617187 -300.62109375 452.49609375 C-307.55163311 451.05080886 -312.7450563 444.5769813 -317.546875 439.7890625 C-318.35811829 438.98447601 -319.16936157 438.17988953 -320.00518799 437.35092163 C-321.71897925 435.64723377 -323.4300858 433.94084156 -325.13867188 432.23193359 C-327.71710434 429.65784031 -330.31105402 427.1001453 -332.90625 424.54296875 C-344.46317466 413.06718591 -355.05126565 401.69740679 -361.8125 386.6875 C-362.36176147 385.49411011 -362.36176147 385.49411011 -362.92211914 384.27661133 C-375.73831759 355.60139719 -377.09517127 322.18888608 -366.25 292.625 C-355.67556535 265.70333533 -335.81848308 246.66467039 -315.73710299 226.57706022 C-313.13131538 223.96939887 -310.52837361 221.35889909 -307.92500305 218.74882507 C-302.25208401 213.06242101 -296.57547736 207.37970812 -290.89802217 201.69783354 C-287.34595857 198.14299333 -283.7946271 194.5874223 -280.24341965 191.03172684 C-270.38824046 181.16437272 -260.53212731 171.29795362 -250.67255592 161.43498802 C-249.72923625 160.491339 -249.72923625 160.491339 -248.76685961 159.52862636 C-248.13659587 158.89814434 -247.50633212 158.26766231 -246.85696948 157.61807477 C-245.58010049 156.34076234 -244.30323306 155.06344835 -243.02636719 153.78613281 C-242.39301556 153.15255976 -241.75966394 152.51898671 -241.10711984 151.86621447 C-230.83904311 141.59418745 -220.57774347 131.31541876 -210.31933303 121.03373913 C-199.75783231 110.4484772 -189.19066818 99.86889643 -178.61786211 89.29492629 C-172.69335048 83.3695011 -166.7712414 77.44171969 -160.85539627 71.50764084 C-155.82073367 66.45751336 -150.78087832 61.41263929 -145.73436762 56.37435029 C-143.16488598 53.8087513 -140.59780072 51.24087787 -138.03734398 48.6662693 C-124.30391762 34.86143853 -110.95807585 22.72788847 -94 13 C-93.22914063 12.55140625 -92.45828125 12.1028125 -91.6640625 11.640625 C-64.48993338 -3.04293951 -29.87858662 -7.75450606 0 0 Z " fill="#F07F1C" transform="translate(376,8)"/>
<path d="M0 0 C9.34190226 7.26303666 17.24341332 15.29352668 20.12109375 26.99609375 C20.78109375 26.99609375 21.44109375 26.99609375 22.12109375 26.99609375 C26.37985727 36.62460258 26.20162853 46.43896532 26.30859375 56.80859375 C26.32172607 57.60885986 26.3348584 58.40912598 26.34838867 59.23364258 C26.35512194 64.2074592 25.71423084 68.27965232 24.12109375 72.99609375 C23.46109375 72.99609375 22.80109375 72.99609375 22.12109375 72.99609375 C21.97671875 74.06859375 21.83234375 75.14109375 21.68359375 76.24609375 C18.60820674 88.61354295 6.41544692 99.02974394 -4.0390625 105.42578125 C-8.17735544 107.71408078 -12.39392921 109.50815325 -16.87890625 110.99609375 C-18.43351562 111.53169922 -18.43351562 111.53169922 -20.01953125 112.078125 C-35.57628544 115.77836512 -53.15316206 113.43086331 -67.12890625 105.87109375 C-82.05117633 96.39695449 -92.74088714 83.19298615 -96.91796875 65.8984375 C-100.43950023 49.72639276 -98.11211951 34.08905677 -90.12890625 19.68359375 C-81.95428575 7.10885864 -70.96325647 -2.73723704 -56.87890625 -8.00390625 C-56.05132812 -8.32359375 -55.22375 -8.64328125 -54.37109375 -8.97265625 C-36.21957378 -14.96765367 -15.40563812 -10.72332748 0 0 Z " fill="#FEFDFC" transform="translate(381.87890625,120.00390625)"/>
<path d="M0 0 C12.33327372 9.99151289 20.58254725 23.43343031 22.609375 39.125 C23.86555193 51.5862751 22.49765999 62.11732476 19 74 C18.34 74 17.68 74 17 74 C16.814375 74.804375 16.62875 75.60875 16.4375 76.4375 C14.46086995 81.33610491 11.33703216 84.95191247 8 89 C7.36835938 89.84433594 6.73671875 90.68867187 6.0859375 91.55859375 C-1.86487782 100.86432329 -17.25872743 107.13960125 -29.3190918 108.20483398 C-31.80004763 108.3033901 -34.26716515 108.32917291 -36.75 108.3125 C-37.63107422 108.30686035 -38.51214844 108.3012207 -39.41992188 108.29541016 C-53.91917213 108.02641231 -68.28088666 103.11616321 -79 93 C-81.82284704 89.77759556 -84.4211228 86.41863763 -87 83 C-87.68320312 82.20335937 -88.36640625 81.40671875 -89.0703125 80.5859375 C-91.21455096 77.71248434 -92.37889135 75.04395394 -93.625 71.6875 C-94.02976562 70.61886719 -94.43453125 69.55023437 -94.8515625 68.44921875 C-99.72198745 53.82137783 -99.98771548 37.90337803 -93.48828125 23.6953125 C-85.08870267 7.34916633 -73.6108802 -4.10507806 -55.91015625 -10.03515625 C-36.20580656 -15.27178812 -16.53592525 -11.68673981 0 0 Z " fill="#FEFDFB" transform="translate(371,481)"/>
<path d="M0 0 C1.07174763 3.65188082 0.76411467 6.26432828 0 10 C-0.66 10 -1.32 10 -2 10 C-2.13277344 10.80695313 -2.26554688 11.61390625 -2.40234375 12.4453125 C-3.09965095 16.59269518 -3.82903183 20.73388782 -4.5625 24.875 C-4.70107422 25.65875 -4.83964844 26.4425 -4.98242188 27.25 C-5.32135283 29.16671297 -5.66063999 31.08336295 -6 33 C-6.33 33 -6.66 33 -7 33 C-7.74601398 36.33446767 -8.12805176 39.42112477 -8.1328125 42.8359375 C-8.13410156 43.73570312 -8.13539062 44.63546875 -8.13671875 45.5625 C-8.13285156 46.490625 -8.12898437 47.41875 -8.125 48.375 C-8.12886719 49.29539062 -8.13273438 50.21578125 -8.13671875 51.1640625 C-8.12952765 56.19783527 -8.05074875 61.06547105 -7 66 C-6.34 66.33 -5.68 66.66 -5 67 C-5.03255208 68.98567708 -5.06510417 70.97135417 -5.09765625 72.95703125 C-5.08263217 75.20305461 -5.08263217 75.20305461 -4 78 C-3.96045766 80.33299825 -3.95598268 82.66708189 -4 85 C-3.34 85 -2.68 85 -2 85 C-1.69707031 85.90621094 -1.39414063 86.81242187 -1.08203125 87.74609375 C1.12614733 94.16679763 3.39013121 100.27859101 6.88671875 106.1328125 C9.16803279 109.95901639 9.16803279 109.95901639 10 112 C9.67 112.99 9.34 113.98 9 115 C-8.81109323 87.85928651 -14.25476751 55.12882012 -7.85400391 23.41894531 C-6.03934229 15.31021534 -3.24058033 7.63696764 0 0 Z " fill="#E2854C" transform="translate(13,293)"/>
<path d="M0 0 C0 0.33 0 0.66 0 1 C-2.97 1 -5.94 1 -9 1 C-9 0.34 -9 -0.32 -9 -1 C-9.99 -1 -10.98 -1 -12 -1 C-12 -0.34 -12 0.32 -12 1 C-13.66656881 1.02757191 -15.33327851 1.04664803 -17 1.0625 C-17.928125 1.07410156 -18.85625 1.08570313 -19.8125 1.09765625 C-22.86540856 1.00412351 -25.81558228 0.64083403 -28.84033203 0.23803711 C-32.70172454 -0.1875629 -36.55601291 -0.22493794 -40.4375 -0.25 C-41.62956055 -0.2809375 -41.62956055 -0.2809375 -42.84570312 -0.3125 C-48.00056344 -0.34605483 -52.12005362 0.44406712 -56.921875 2.33422852 C-60.32729628 3.42522755 -63.45303529 3.1934708 -67 3 C-63.82291306 0.88194204 -61.57315502 0.27242625 -57.875 -0.5625 C-56.26238281 -0.93568359 -56.26238281 -0.93568359 -54.6171875 -1.31640625 C-36.8252926 -4.67880539 -17.5512913 -4.45410414 0 0 Z " fill="#F08E2A" transform="translate(376,8)"/>
<path d="M0 0 C0 4.57122056 -2.07426143 7.05768498 -5.22241211 10.26220703 C-6.59731812 11.61741455 -6.59731812 11.61741455 -8 13 C-8.99684344 14.01811049 -9.99095237 15.03890378 -10.98266602 16.06201172 C-13.87439315 19.04224731 -16.78090465 22.00755727 -19.69311523 24.96777344 C-20.94562662 26.24563931 -22.19364403 27.52792462 -23.43725586 28.81445312 C-25.23954346 30.6771407 -27.05729206 32.52342138 -28.87890625 34.3671875 C-29.43316788 34.94725555 -29.9874295 35.52732361 -30.55848694 36.12496948 C-32.14672852 37.71435547 -32.14672852 37.71435547 -35 40 C-37.17832947 39.64285278 -37.17832947 39.64285278 -39 39 C-35.66666667 35.66666667 -32.33333333 32.33333333 -29 29 C-28.10667969 28.06542969 -27.21335937 27.13085938 -26.29296875 26.16796875 C-24 24 -24 24 -22 24 C-21.690625 23.20335937 -21.690625 23.20335937 -21.375 22.390625 C-19.42038808 18.99226564 -16.77876283 16.48944072 -14 13.75 C-13.4534375 13.19570313 -12.906875 12.64140625 -12.34375 12.0703125 C-8.2533867 8 -8.2533867 8 -6 8 C-5.34 6.68 -4.68 5.36 -4 4 C-3.34 4 -2.68 4 -2 4 C-1.34 2.68 -0.68 1.36 0 0 Z " fill="#FDE9D4" transform="translate(586,492)"/>
<path d="M0 0 C0.65631104 1.80523682 0.65631104 1.80523682 1 4 C-0.96902439 6.45339977 -2.89970664 8.5517665 -5.140625 10.734375 C-5.77861023 11.37240051 -6.41659546 12.01042603 -7.07391357 12.66778564 C-8.42663779 14.01514403 -9.78549234 15.35637112 -11.14990234 16.69189453 C-13.24169521 18.74186127 -15.31138546 20.81230459 -17.37890625 22.88671875 C-18.69405409 24.19137392 -20.01042064 25.49480197 -21.328125 26.796875 C-21.9501178 27.41866638 -22.5721106 28.04045776 -23.21295166 28.68109131 C-27.65291545 33 -27.65291545 33 -31 33 C-31 33.99 -31 34.98 -31 36 C-32.32 35.67 -33.64 35.34 -35 35 C-34.0479279 33.99403703 -33.08812654 32.99538437 -32.125 32 C-31.59132813 31.443125 -31.05765625 30.88625 -30.5078125 30.3125 C-29 29 -29 29 -27 29 C-26.78682129 28.46084961 -26.57364258 27.92169922 -26.35400391 27.36621094 C-24.50501173 24.13497542 -21.97204371 21.72601307 -19.3359375 19.140625 C-18.78386627 18.59138367 -18.23179504 18.04214233 -17.66299438 17.47625732 C-15.90498185 15.72940707 -14.1401311 13.98965399 -12.375 12.25 C-11.1792292 11.06426409 -9.98391135 9.8780712 -8.7890625 8.69140625 C-5.86459747 5.78894915 -2.93398126 2.8928359 0 0 Z " fill="#FDE8D2" transform="translate(483,595)"/>
<path d="M0 0 C4.63615331 3.99224313 6.97252889 8.23473298 9 14 C9 14.66 9 15.32 9 16 C9.99 16.33 10.98 16.66 12 17 C13.28125 19.625 13.28125 19.625 14.5 23 C14.92796875 24.18078125 15.3559375 25.3615625 15.796875 26.578125 C16.19390625 27.70734375 16.5909375 28.8365625 17 30 C17.31453125 30.84046875 17.6290625 31.6809375 17.953125 32.546875 C19.81871732 37.70468906 20.56602214 42.53187902 21 48 C20.34 48 19.68 48 19 48 C18.83723958 45.98177083 18.67447917 43.96354167 18.51171875 41.9453125 C18.12606964 39.60480784 18.12606964 39.60480784 15 38 C13.99503148 34.98509443 13.89664697 32.95818308 13.9375 29.8125 C13.94652344 28.91144531 13.95554687 28.01039063 13.96484375 27.08203125 C13.97644531 26.39496094 13.98804688 25.70789063 14 25 C13.34 25 12.68 25 12 25 C12 23.68 12 22.36 12 21 C11.01 20.67 10.02 20.34 9 20 C9 19.01 9 18.02 9 17 C8.01 17.33 7.02 17.66 6 18 C5.67 15.03 5.34 12.06 5 9 C3.68 9.33 2.36 9.66 1 10 C0.63720544 8.71073008 0.28503302 7.41846728 -0.0625 6.125 C-0.35833984 5.04605469 -0.35833984 5.04605469 -0.66015625 3.9453125 C-1 2 -1 2 0 0 Z " fill="#EEA24F" transform="translate(667,272)"/>
<path d="M0 0 C0.99 0.33 1.98 0.66 3 1 C-8.55 12.55 -20.1 24.1 -32 36 C-32.33 34.68 -32.66 33.36 -33 32 C-32.195625 31.7525 -31.39125 31.505 -30.5625 31.25 C-29.716875 30.8375 -28.87125 30.425 -28 30 C-27.26676204 27.98491642 -27.26676204 27.98491642 -27 26 C-26.34 25.67 -25.68 25.34 -25 25 C-25 23.68 -25 22.36 -25 21 C-23.02 20.67 -21.04 20.34 -19 20 C-18.67 19.01 -18.34 18.02 -18 17 C-17.34 17.33 -16.68 17.66 -16 18 C-15.7525 17.46375 -15.505 16.9275 -15.25 16.375 C-12.14315414 10.47199288 -10.43316607 8.00142944 -4 6 C-3.03122943 3.96756452 -3.03122943 3.96756452 -3 2 C-2.01 2 -1.02 2 0 2 C0 1.34 0 0.68 0 0 Z " fill="#E47A2F" transform="translate(188,353)"/>
<path d="M0 0 C1.20398438 0.04705078 2.40796875 0.09410156 3.6484375 0.14257812 C4.9065625 0.20251953 6.1646875 0.26246094 7.4609375 0.32421875 C8.72679687 0.37255859 9.99265625 0.42089844 11.296875 0.47070312 C20.69315476 0.86893601 20.69315476 0.86893601 21.8359375 2.01171875 C24.15546319 2.29273821 26.47479264 2.459545 28.8046875 2.6328125 C29.475 2.75785156 30.1453125 2.88289062 30.8359375 3.01171875 C31.3309375 4.00171875 31.3309375 4.00171875 31.8359375 5.01171875 C31.11905762 4.94170654 30.40217773 4.87169434 29.66357422 4.79956055 C10.07950843 3.0107075 -9.91079645 2.60874042 -28.859375 8.42578125 C-31.1640625 9.01171875 -31.1640625 9.01171875 -35.1640625 9.01171875 C-35.1640625 8.35171875 -35.1640625 7.69171875 -35.1640625 7.01171875 C-33.1840625 7.01171875 -31.2040625 7.01171875 -29.1640625 7.01171875 C-29.1640625 6.35171875 -29.1640625 5.69171875 -29.1640625 5.01171875 C-27.11328125 4.78385417 -25.0625 4.55598958 -23.01171875 4.328125 C-21.15266021 4.19285261 -21.15266021 4.19285261 -20.1640625 3.01171875 C-17.38847827 2.72692753 -14.61278405 2.56328856 -11.828125 2.390625 C-7.21147524 1.73400473 -5.01910402 -0.20818745 0 0 Z " fill="#FEF0D3" transform="translate(340.1640625,1.98828125)"/>
<path d="M0 0 C2.64 0 5.28 0 8 0 C7.34 1.98 6.68 3.96 6 6 C6.66 6 7.32 6 8 6 C8.33 6.99 8.66 7.98 9 9 C11.65374517 11.96595049 14.41069223 14.33919619 17.6875 16.5625 C20.48450848 18.48130797 21.56127863 19.91702564 23 23 C23.804375 23.474375 24.60875 23.94875 25.4375 24.4375 C28 26 28 26 29.4375 28.4375 C30.90060831 31.25831608 30.90060831 31.25831608 34.125 33 C37 35 37 35 37.875 37.75 C37.91625 38.4925 37.9575 39.235 38 40 C31.48603078 34.67297852 25.58178794 28.76792056 19.63818359 22.82348633 C17.87746347 21.0649604 16.10888041 19.31460764 14.33984375 17.56445312 C13.2026353 16.43017826 12.06590039 15.29542838 10.9296875 14.16015625 C10.40873505 13.64638931 9.88778259 13.13262238 9.3510437 12.60328674 C0 3.19442241 0 3.19442241 0 0 Z " fill="#E2732E" transform="translate(24,410)"/>
<path d="M0 0 C13.40566038 11.21698113 13.40566038 11.21698113 15 16 C14.01 16 13.02 16 12 16 C11.67 16.66 11.34 17.32 11 18 C11 17.34 11 16.68 11 16 C10.34 16 9.68 16 9 16 C9 15.34 9 14.68 9 14 C8.34 14 7.68 14 7 14 C7 13.34 7 12.68 7 12 C4.69 12.33 2.38 12.66 0 13 C-0.22786458 10.98177083 -0.45572917 8.96354167 -0.68359375 6.9453125 C-0.91292961 4.92595684 -0.91292961 4.92595684 -2 3 C-1.34 3 -0.68 3 0 3 C0 2.01 0 1.02 0 0 Z " fill="#F59420" transform="translate(641,244)"/>
<path d="M0 0 C0 0.99 0 1.98 0 3 C0.99 4.485 0.99 4.485 2 6 C-2.3510055 9.74388845 -6.61319175 12.72333512 -11.6875 15.4375 C-14.25230345 17.1704753 -14.74911536 18.24805379 -16 21 C-17.31328657 22.35308313 -18.64499081 23.68870078 -20 25 C-20.33 25.66 -20.66 26.32 -21 27 C-23.3140622 27.73075648 -25.64828869 28.40138258 -28 29 C-22.61359076 22.44622903 -16.64114873 16.52753365 -10.625 10.5625 C-9.59221405 9.53474017 -8.55966009 8.50674715 -7.52734375 7.47851562 C-5.02089713 4.98298402 -2.5113292 2.49061918 0 0 Z " fill="#ED8930" transform="translate(222,73)"/>
<path d="M0 0 C-0.66 0.66 -1.32 1.32 -2 2 C-3.7634375 1.2884375 -3.7634375 1.2884375 -5.5625 0.5625 C-9.40103259 -0.88806847 -12.92740191 -1.57577103 -17 -2 C-17 -2.66 -17 -3.32 -17 -4 C-20.96 -4 -24.92 -4 -29 -4 C-29 -4.66 -29 -5.32 -29 -6 C-32.81281945 -5.86184471 -36.62515717 -5.71319438 -40.4375 -5.5625 C-42.07041992 -5.50352539 -42.07041992 -5.50352539 -43.73632812 -5.44335938 C-45.28803711 -5.38051758 -45.28803711 -5.38051758 -46.87109375 -5.31640625 C-47.82943115 -5.27974854 -48.78776855 -5.24309082 -49.77514648 -5.20532227 C-51.97138925 -5.24165576 -51.97138925 -5.24165576 -53 -4 C-55.57897694 -3.67762788 -58.15931821 -3.48732696 -60.75 -3.28125 C-62.96665352 -3.23799335 -62.96665352 -3.23799335 -64 -2 C-65.51928038 -1.92820036 -67.04167482 -1.91607993 -68.5625 -1.9375 C-69.38878906 -1.94652344 -70.21507812 -1.95554687 -71.06640625 -1.96484375 C-71.70449219 -1.97644531 -72.34257812 -1.98804688 -73 -2 C-52.53117698 -13.59563866 -20.78958915 -7.69984783 0 0 Z " fill="#E4843F" transform="translate(357,377)"/>
<path d="M0 0 C0 4.13864765 -1.56835341 6.45885358 -4.37255859 9.47753906 C-6.5087164 11.592774 -8.68929208 13.6572477 -10.88085938 15.71484375 C-12.30686807 17.09035886 -13.65949489 18.54103164 -15 20 C-15 20.99 -15 21.98 -15 23 C-15.86625 23.12375 -15.86625 23.12375 -16.75 23.25 C-19.16524413 23.86285107 -19.16524413 23.86285107 -20.9375 26 C-23.30854261 28.29919283 -24.77231982 28.64136887 -28 29 C-27.67 28.34 -27.34 27.68 -27 27 C-26.34 27 -25.68 27 -25 27 C-24.7525 26.4225 -24.505 25.845 -24.25 25.25 C-22.81700012 22.67060021 -21.21575324 20.93878408 -19 19 C-18.34 19 -17.68 19 -17 19 C-16.7417041 18.41573242 -16.4834082 17.83146484 -16.21728516 17.22949219 C-14.90326864 14.82283378 -13.47519985 13.24680663 -11.5234375 11.328125 C-10.853125 10.66425781 -10.1828125 10.00039062 -9.4921875 9.31640625 C-8.79351562 8.63449219 -8.09484375 7.95257813 -7.375 7.25 C-6.31539063 6.20392578 -6.31539063 6.20392578 -5.234375 5.13671875 C-3.49401297 3.41987512 -1.74915019 1.70788168 0 0 Z " fill="#FDECD6" transform="translate(471,205)"/>
<path d="M0 0 C0.66 0.33 1.32 0.66 2 1 C-17.54596926 11.21946616 -17.54596926 11.21946616 -26 13 C-26.99 12.67 -27.98 12.34 -29 12 C-25.4295302 9.06711409 -25.4295302 9.06711409 -23 8.6875 C-20.6292134 8.10722562 -20.6292134 8.10722562 -19.125 5 C-17 2 -17 2 -13.75 1.125 C-12.8425 1.08375 -11.935 1.0425 -11 1 C-11.33 1.99 -11.66 2.98 -12 4 C-8.64411736 3.07877731 -5.39637215 2.16735713 -2.1875 0.8125 C-1.1046875 0.4103125 -1.1046875 0.4103125 0 0 Z " fill="#E67425" transform="translate(405,665)"/>
<path d="M0 0 C0.99 0 1.98 0 3 0 C1.82277508 3.95975654 0.27110292 7.59266141 -1.5 11.3125 C-7.46578032 24.47593267 -7.92097063 40.0665508 -4 54 C-6 53 -6 53 -6.8515625 50.4453125 C-10.41392246 35.15235309 -9.11496441 21.55943907 -3 7 C-2.34 7 -1.68 7 -1 7 C-1.20625 6.401875 -1.4125 5.80375 -1.625 5.1875 C-2 3 -2 3 0 0 Z " fill="#E3782A" transform="translate(280,494)"/>
<path d="M0 0 C2 1 2 1 4 6 C0.7 9.3 -2.6 12.6 -6 16 C-6.66 15.67 -7.32 15.34 -8 15 C-7.90427714 9.54379671 -7.38708838 6.89384822 -3.4375 3 C-2.30786495 1.98173742 -1.16708671 0.97511161 0 0 Z " fill="#F38B1C" transform="translate(506,161)"/>
<path d="M0 0 C5.11184073 4.29738942 9.99253603 8.751541 14.75 13.4375 C15.40871094 14.06720703 16.06742188 14.69691406 16.74609375 15.34570312 C20.76678347 19.31338173 23.28376352 22.58575964 25 28 C24.68965517 34.31034483 24.68965517 34.31034483 22 37 C22.03480469 36.26394531 22.06960937 35.52789062 22.10546875 34.76953125 C22.46523445 27.34597858 22.46523445 27.34597858 19 21 C18.34 20.67 17.68 20.34 17 20 C17 19.34 17 18.68 17 18 C16.34 18 15.68 18 15 18 C14.401875 17.21625 13.80375 16.4325 13.1875 15.625 C10.87559356 12.85071227 9.39491889 12.03733633 6 11 C6 10.34 6 9.68 6 9 C5.34 8.67 4.68 8.34 4 8 C3 6.1875 3 6.1875 2 4 C1.33626319 2.66520576 0.67001464 1.33165409 0 0 Z " fill="#E07C33" transform="translate(172,313)"/>
<path d="M0 0 C-5.30978349 3.2742406 -9.52336243 3.40082506 -15.5546875 3.29296875 C-16.45623566 3.28872391 -17.35778381 3.28447906 -18.28665161 3.28010559 C-21.14974565 3.26339058 -24.01212079 3.22575192 -26.875 3.1875 C-28.82290646 3.17244387 -30.77082402 3.15875709 -32.71875 3.14648438 C-37.47944122 3.11351058 -42.23959896 3.06177813 -47 3 C-47 2.34 -47 1.68 -47 1 C-46.23034912 1.01047363 -45.46069824 1.02094727 -44.66772461 1.03173828 C-25.59877919 1.39755135 -25.59877919 1.39755135 -6.6875 -0.66015625 C-4.08000689 -0.98988285 -2.46169761 -0.84620855 0 0 Z " fill="#FED9B9" transform="translate(375,680)"/>
<path d="M0 0 C-3 1 -6 2 -9 3 C-9.92055176 3.34281006 -10.84110352 3.68562012 -11.78955078 4.03881836 C-15.02597473 5.00777662 -17.55765648 5.24437273 -20.921875 5.23046875 C-22.03046875 5.22853516 -23.1390625 5.22660156 -24.28125 5.22460938 C-25.4259375 5.21236328 -26.570625 5.20011719 -27.75 5.1875 C-28.87921875 5.18685547 -30.0084375 5.18621094 -31.171875 5.18554688 C-37.83811892 5.15082685 -44.38301485 4.81539423 -51 4 C-51 3.67 -51 3.34 -51 3 C-50.30664551 3.01571045 -49.61329102 3.0314209 -48.89892578 3.04760742 C-35.57662642 3.30859146 -11.80992467 -3.66514904 0 0 Z " fill="#FEE8CB" transform="translate(351,310)"/>
<path d="M0 0 C0 0.66 0 1.32 0 2 C-11.69575004 6.92127511 -24.50822301 6.57206836 -37 7 C-37 6.34 -37 5.68 -37 5 C-37.66 4.34 -38.32 3.68 -39 3 C-38.26998779 3.01571045 -37.53997559 3.0314209 -36.7878418 3.04760742 C-33.42114274 3.11067814 -30.05456863 3.14921714 -26.6875 3.1875 C-25.53958984 3.21263672 -24.39167969 3.23777344 -23.20898438 3.26367188 C-16.42777468 3.32130255 -10.59763499 2.70010839 -4.12036133 0.6496582 C-2 0 -2 0 0 0 Z " fill="#DE7B2D" transform="translate(371,229)"/>
<path d="M0 0 C4.40191541 1.32714465 8.16019062 3.05289937 12.125 5.375 C13.13820313 5.96023437 14.15140625 6.54546875 15.1953125 7.1484375 C17.83154955 8.88879455 19.86719666 10.68351025 22 13 C19.03824877 12.38722388 17.61941217 11.74627478 15 10 C14.67 10.33 14.34 10.66 14 11 C11.972246 11.25749257 9.94371791 11.51207223 7.91015625 11.71875 C5.91911653 11.91037786 5.91911653 11.91037786 4 13 C5.75 9.125 5.75 9.125 8 8 C7.67 6.68 7.34 5.36 7 4 C4.69 3.67 2.38 3.34 0 3 C0 2.01 0 1.02 0 0 Z " fill="#ED912A" transform="translate(404,19)"/>
<path d="M0 0 C0.763125 0.20625 1.52625 0.4125 2.3125 0.625 C2.43625 1.264375 2.56 1.90375 2.6875 2.5625 C2.89375 3.243125 3.1 3.92375 3.3125 4.625 C3.9725 4.955 4.6325 5.285 5.3125 5.625 C4.9825 5.955 4.6525 6.285 4.3125 6.625 C4.745625 7.0375 5.17875 7.45 5.625 7.875 C7.40354337 9.71941535 8.95247383 11.44895812 10.3125 13.625 C9.9825 14.615 9.6525 15.605 9.3125 16.625 C4.3625 11.675 -0.5875 6.725 -5.6875 1.625 C-2.6875 -0.375 -2.6875 -0.375 0 0 Z " fill="#EA782E" transform="translate(167.6875,545.375)"/>
<path d="M0 0 C0.33 0.66 0.66 1.32 1 2 C0.67 2.66 0.34 3.32 0 4 C-0.66 4 -1.32 4 -2 4 C-2.06445312 4.55171875 -2.12890625 5.1034375 -2.1953125 5.671875 C-3.34380636 8.99470188 -5.39189927 10.78849145 -7.875 13.25 C-8.75929688 14.14203125 -9.64359375 15.0340625 -10.5546875 15.953125 C-13 18 -13 18 -16 18 C-16.99 20.475 -16.99 20.475 -18 23 C-18.99 23 -19.98 23 -21 23 C-19.6957784 19.47860167 -17.61680614 17.77937887 -14.71875 15.4921875 C-12.0706225 13.19313135 -9.87483581 10.53946116 -7.61328125 7.8671875 C-6.13158368 6.15229298 -4.69589264 4.50434554 -3 3 C-2.34 3 -1.68 3 -1 3 C-0.67 2.01 -0.34 1.02 0 0 Z " fill="#FDEAD1" transform="translate(645,433)"/>
<path d="M0 0 C0.66 0 1.32 0 2 0 C1.8125 1.75 1.8125 1.75 1 4 C0.154375 4.66 -0.69125 5.32 -1.5625 6 C-2.366875 6.66 -3.17125 7.32 -4 8 C-4 9.32 -4 10.64 -4 12 C-5.65 12.33 -7.3 12.66 -9 13 C-9 14.65 -9 16.3 -9 18 C-9.7425 17.95875 -10.485 17.9175 -11.25 17.875 C-14.11960046 18.00543638 -15.52093306 18.6545235 -18 20 C-13.90863996 14.33395843 -9.83339593 9.24035957 -4.3125 4.875 C-1.80846331 3.03438927 -1.80846331 3.03438927 0 0 Z " fill="#E87E32" transform="translate(217,420)"/>
<path d="M0 0 C0.33 0 0.66 0 1 0 C3.69352647 14.98817148 5.89120366 40.66319451 -3 54 C-3 51.69 -3 49.38 -3 47 C-2.34 47 -1.68 47 -1 47 C-1 42.05 -1 37.1 -1 32 C-0.34 32 0.32 32 1 32 C0.67 21.44 0.34 10.88 0 0 Z " fill="#F1A95E" transform="translate(688,320)"/>
<path d="M0 0 C1.32 0.66 2.64 1.32 4 2 C4.33 1.34 4.66 0.68 5 0 C6.32 0.33 7.64 0.66 9 1 C5.37 4.63 1.74 8.26 -2 12 C-2.66 11.67 -3.32 11.34 -4 11 C-3.979375 10.21625 -3.95875 9.4325 -3.9375 8.625 C-3.81315937 6.01885039 -3.81315937 6.01885039 -5 4 C-3.35 2.68 -1.7 1.36 0 0 Z " fill="#EE8922" transform="translate(487,180)"/>
<path d="M0 0 C0.33 1.32 0.66 2.64 1 4 C0.20335937 4.65355469 0.20335937 4.65355469 -0.609375 5.3203125 C-3.98392396 8.16527896 -6.73760372 10.60265706 -9.1875 14.3125 C-11.22170143 17.32872971 -12.55071835 18.04186621 -16 19 C-16 19.66 -16 20.32 -16 21 C-16.99 20.67 -17.98 20.34 -19 20 C-18.40832031 19.34773438 -17.81664062 18.69546875 -17.20703125 18.0234375 C-12.11477266 12.42204525 -12.11477266 12.42204525 -7.25 6.625 C-5.0290327 4.03387149 -2.73385391 2.0308629 0 0 Z " fill="#EC933A" transform="translate(479,290)"/>
<path d="M0 0 C-1.32 0.33 -2.64 0.66 -4 1 C-4 1.66 -4 2.32 -4 3 C-4.71027344 3.13277344 -5.42054688 3.26554688 -6.15234375 3.40234375 C-7.07144531 3.57894531 -7.99054688 3.75554688 -8.9375 3.9375 C-9.85402344 4.11152344 -10.77054687 4.28554688 -11.71484375 4.46484375 C-13.95289844 4.77714988 -13.95289844 4.77714988 -15 6 C-16.4887186 6.08669432 -17.981445 6.10703494 -19.47265625 6.09765625 C-20.37177734 6.09443359 -21.27089844 6.09121094 -22.19726562 6.08789062 C-23.14279297 6.07951172 -24.08832031 6.07113281 -25.0625 6.0625 C-26.01189453 6.05798828 -26.96128906 6.05347656 -27.93945312 6.04882812 C-30.29303065 6.0370011 -32.64648477 6.02052025 -35 6 C-35.33 5.34 -35.66 4.68 -36 4 C-34.71867187 3.97421875 -33.43734375 3.9484375 -32.1171875 3.921875 C-22.38723378 3.63342646 -13.82054378 2.90347964 -4.5546875 -0.2578125 C-2 -1 -2 -1 0 0 Z " fill="#DE7F40" transform="translate(360,585)"/>
<path d="M0 0 C0.66 1.32 1.32 2.64 2 4 C1.236875 4.226875 0.47375 4.45375 -0.3125 4.6875 C-3.61325079 6.29949457 -4.26149935 7.82534664 -6 11 C-7.28965176 12.37562854 -8.62689293 13.70766393 -10 15 C-10.825 15.928125 -11.65 16.85625 -12.5 17.8125 C-13.325 18.534375 -14.15 19.25625 -15 20 C-16.32 19.67 -17.64 19.34 -19 19 C-12.73 12.73 -6.46 6.46 0 0 Z " fill="#E4833F" transform="translate(77,218)"/>
<path d="M0 0 C1.19947266 0.00451172 2.39894531 0.00902344 3.63476562 0.01367188 C6.56906359 0.02536231 9.50325449 0.04174862 12.4375 0.0625 C12.4375 0.3925 12.4375 0.7225 12.4375 1.0625 C11.37221069 1.10008423 11.37221069 1.10008423 10.28540039 1.13842773 C7.02346536 1.25548472 3.76174278 1.37770746 0.5 1.5 C-1.17545898 1.55897461 -1.17545898 1.55897461 -2.88476562 1.61914062 C-14.73376912 1.79325475 -14.73376912 1.79325475 -26.125 4.625 C-30.45380325 6.19495329 -33.98082985 6.31240928 -38.5625 6.0625 C-35.38541306 3.94444204 -33.13565502 3.33492625 -29.4375 2.5 C-27.82488281 2.12681641 -27.82488281 2.12681641 -26.1796875 1.74609375 C-17.42808914 0.09217397 -8.89602047 -0.06400015 0 0 Z " fill="#E2903D" transform="translate(347.5625,4.9375)"/>
<path d="M0 0 C1.98 0 3.96 0 6 0 C-4.72599208 8.78725642 -19.90900249 7.97323351 -33 7 C-34.67169764 6.69289109 -36.34029494 6.36642599 -38 6 C-38 5.67 -38 5.34 -38 5 C-28.1 5 -18.2 5 -8 5 C-8 4.34 -8 3.68 -8 3 C-5.69 3 -3.38 3 -1 3 C-0.67 2.01 -0.34 1.02 0 0 Z " fill="#FEEECE" transform="translate(369,226)"/>
<path d="M0 0 C1.0546875 1.859375 1.0546875 1.859375 2 4 C1.125 6.25 1.125 6.25 0 8 C-0.66 7.67 -1.32 7.34 -2 7 C-2.99 7.33 -3.98 7.66 -5 8 C-5 9.32 -5 10.64 -5 12 C-5.78375 12.0825 -6.5675 12.165 -7.375 12.25 C-8.24125 12.4975 -9.1075 12.745 -10 13 C-10.33 13.66 -10.66 14.32 -11 15 C-11.33 15.66 -11.66 16.32 -12 17 C-14.625 17.75 -14.625 17.75 -17 18 C-11.72898586 11.58930713 -5.90871848 5.81409488 0 0 Z " fill="#ED8F38" transform="translate(255,40)"/>
<path d="M0 0 C5.61 0 11.22 0 17 0 C17 0.66 17 1.32 17 2 C16.06800781 2.03738281 15.13601563 2.07476562 14.17578125 2.11328125 C3.32187592 2.67298719 -6.67634706 4.45651734 -17 8 C-17.33 7.01 -17.66 6.02 -18 5 C-12.06 3.68 -6.12 2.36 0 1 C0 0.67 0 0.34 0 0 Z " fill="#E0782B" transform="translate(323,467)"/>
<path d="M0 0 C0 3 0 3 -2.3125 5.5 C-3.199375 6.325 -4.08625 7.15 -5 8 C-5.495 8.495 -5.99 8.99 -6.5 9.5 C-6.995 9.995 -7.49 10.49 -8 11 C-8.825 11.86625 -9.65 12.7325 -10.5 13.625 C-13 16 -13 16 -16 17 C-16.33 19.64 -16.66 22.28 -17 25 C-17.66 25 -18.32 25 -19 25 C-19 24.34 -19 23.68 -19 23 C-19.99 22.67 -20.98 22.34 -22 22 C-18.85162451 17.99297665 -15.61060917 14.69177256 -11.6953125 11.4375 C-9.3226152 9.42562763 -7.16990732 7.22701015 -5 5 C-2.5 2.5 -2.5 2.5 0 0 Z " fill="#E68238" transform="translate(241,397)"/>
<path d="M0 0 C0 3 0 3 -2 5.125 C-2.45375 5.55039062 -2.9075 5.97578125 -3.375 6.4140625 C-5.36129127 8.35260638 -7.1699892 10.41351041 -9 12.5 C-13.3666839 17.4401696 -17.76813538 21.96399015 -23 26 C-23.66 25.67 -24.32 25.34 -25 25 C-16.75 16.75 -8.5 8.5 0 0 Z " fill="#FEEFDA" transform="translate(415,262)"/>
<path d="M0 0 C0.33 0.66 0.66 1.32 1 2 C0.67 2.66 0.34 3.32 0 4 C-0.99 4 -1.98 4 -3 4 C-3.061875 4.886875 -3.12375 5.77375 -3.1875 6.6875 C-4.51198212 12.08731174 -8.11459195 14.58733998 -12.6875 17.375 C-13.780625 17.91125 -14.87375 18.4475 -16 19 C-16.66 18.67 -17.32 18.34 -18 18 C-12.31481712 11.5575694 -6.66474693 5.45466718 0 0 Z " fill="#ED9638" transform="translate(532,237)"/>
<path d="M0 0 C0.66 0.33 1.32 0.66 2 1 C0.65396518 5.03810445 -1.65336723 6.47295076 -5 9 C-5.66 9 -6.32 9 -7 9 C-7.061875 9.7425 -7.12375 10.485 -7.1875 11.25 C-8.27906837 14.94453909 -9.88369551 15.74565207 -13 18 C-14.44749485 19.23841226 -15.88452567 20.48912905 -17.3125 21.75 C-18.35857422 22.67039062 -18.35857422 22.67039062 -19.42578125 23.609375 C-19.94527344 24.06828125 -20.46476562 24.5271875 -21 25 C-21.66 24.67 -22.32 24.34 -23 24 C-19.77734375 20.77734375 -16.5546875 17.5546875 -13.33203125 14.33203125 C-12.76718018 13.76653564 -12.2023291 13.20104004 -11.62036133 12.6184082 C-10.16822261 11.16801984 -8.70953291 9.72419731 -7.25 8.28125 C-5.46217434 6.46859343 -3.79247021 4.65932054 -2.1875 2.6875 C-1.465625 1.800625 -0.74375 0.91375 0 0 Z " fill="#EA9238" transform="translate(512,256)"/>
<path d="M0 0 C0.33 0.99 0.66 1.98 1 3 C-0.32 4.32 -1.64 5.64 -3 7 C-2.67 7.99 -2.34 8.98 -2 10 C-3.125 12.125 -3.125 12.125 -5 14 C-7.4375 14.625 -7.4375 14.625 -10 15 C-12.23408113 15.99083967 -12.23408113 15.99083967 -14 17 C-14.66 16.34 -15.32 15.68 -16 15 C-15.43152344 14.5875 -14.86304688 14.175 -14.27734375 13.75 C-8.80205672 9.65496062 -4.29431688 5.31611576 0 0 Z " fill="#E98633" transform="translate(396,208)"/>
<path d="M0 0 C6.12998488 5.27859809 9.17263429 11.93318434 10 20 C9.67 19.01 9.34 18.02 9 17 C8.01 17.33 7.02 17.66 6 18 C5.67 15.03 5.34 12.06 5 9 C3.68 9.33 2.36 9.66 1 10 C0.63720544 8.71073008 0.28503302 7.41846728 -0.0625 6.125 C-0.35833984 5.04605469 -0.35833984 5.04605469 -0.66015625 3.9453125 C-1 2 -1 2 0 0 Z " fill="#F2A447" transform="translate(667,272)"/>
<path d="M0 0 C1.65 0 3.3 0 5 0 C5 0.66 5 1.32 5 2 C5.85464844 2.20496094 6.70929688 2.40992188 7.58984375 2.62109375 C8.69457031 2.89050781 9.79929687 3.15992188 10.9375 3.4375 C12.03964844 3.70433594 13.14179688 3.97117187 14.27734375 4.24609375 C17 5 17 5 18 6 C20.01311449 6.39569108 22.03597208 6.74252191 24.0625 7.0625 C25.71958984 7.32740234 25.71958984 7.32740234 27.41015625 7.59765625 C28.26480469 7.73042969 29.11945313 7.86320313 30 8 C30 8.66 30 9.32 30 10 C24.6457976 10.25496202 20.60559509 9.46648984 15.5625 7.6875 C14.91015381 7.4603833 14.25780762 7.2332666 13.58569336 6.99926758 C9.03068869 5.40379651 4.49976932 3.74480851 0 2 C0 1.34 0 0.68 0 0 Z " fill="#E47B37" transform="translate(298,670)"/>
<path d="M0 0 C0.33 0.99 0.66 1.98 1 3 C-0.28548409 4.33929505 -1.57858155 5.67128643 -2.875 7 C-3.59429687 7.7425 -4.31359375 8.485 -5.0546875 9.25 C-7 11 -7 11 -9 11 C-9.268125 11.61875 -9.53625 12.2375 -9.8125 12.875 C-11 15 -11 15 -14 17 C-14.99 16.67 -15.98 16.34 -17 16 C-16.41992188 15.50371094 -15.83984375 15.00742187 -15.2421875 14.49609375 C-11.44199121 11.19130259 -7.79773053 7.93193205 -4.5625 4.0625 C-2 1 -2 1 0 0 Z " fill="#FCE5CF" transform="translate(133,411)"/>
<path d="M0 0 C0.33 0 0.66 0 1 0 C1.04898437 1.25296875 1.09796875 2.5059375 1.1484375 3.796875 C1.22348583 5.44793821 1.29903277 7.09897881 1.375 8.75 C1.4059375 9.575 1.436875 10.4 1.46875 11.25 C1.52675781 12.44882812 1.52675781 12.44882812 1.5859375 13.671875 C1.6173584 14.4050293 1.6487793 15.13818359 1.68115234 15.89355469 C2.0395401 18.26121895 2.88057999 19.89704333 4 22 C4.43098753 23.90485849 4.80392764 25.82356582 5.125 27.75 C5.29257812 28.73484375 5.46015625 29.7196875 5.6328125 30.734375 C5.75398438 31.48203125 5.87515625 32.2296875 6 33 C3 32 3 32 2.05737305 30.12353516 C0.05961215 23.42175583 -0.36888896 17.34219644 -0.1875 10.375 C-0.17396484 9.37082031 -0.16042969 8.36664063 -0.14648438 7.33203125 C-0.11156152 4.88743136 -0.06252748 2.44402266 0 0 Z " fill="#F09A53" transform="translate(450,330)"/>
<path d="M0 0 C0.33 0.99 0.66 1.98 1 3 C0.33333333 4.33333333 -0.33333333 5.66666667 -1 7 C-0.938125 7.825 -0.87625 8.65 -0.8125 9.5 C-1 12 -1 12 -3.3125 14.3125 C-6 16 -6 16 -9 16 C-7.51637716 9.73581469 -3.75837844 5.08486495 0 0 Z " fill="#E67E35" transform="translate(25,273)"/>
<path d="M0 0 C3.39997948 1.13332649 4.48048355 2.62437747 6.66015625 5.3671875 C8.61622629 7.75096965 10.78935494 9.85251622 13 12 C12.01 12 11.02 12 10 12 C9.34 11.34 8.68 10.68 8 10 C7.01 10 6.02 10 5 10 C5 10.66 5 11.32 5 12 C3.68 11.67 2.36 11.34 1 11 C1.33 8.69 1.66 6.38 2 4 C1.01 3.67 0.02 3.34 -1 3 C-0.67 2.01 -0.34 1.02 0 0 Z " fill="#EE9329" transform="translate(453,57)"/>
<path d="M0 0 C1.32 0.33 2.64 0.66 4 1 C-1.61 6.61 -7.22 12.22 -13 18 C-13.33 17.01 -13.66 16.02 -14 15 C-13.01 14.67 -12.02 14.34 -11 14 C-10.26676204 11.98491642 -10.26676204 11.98491642 -10 10 C-9.34 10 -8.68 10 -8 10 C-8 9.34 -8 8.68 -8 8 C-6.50390625 6.5625 -6.50390625 6.5625 -4.5625 5 C-1.84811762 2.85474956 -1.84811762 2.85474956 0 0 Z " fill="#EA8D28" transform="translate(524,148)"/>
<path d="M0 0 C1.48574574 2.22861861 2.69576944 4.27408666 3.875 6.65234375 C4.22046875 7.34650391 4.5659375 8.04066406 4.921875 8.75585938 C5.27765625 9.47580078 5.6334375 10.19574219 6 10.9375 C6.53367187 12.01161133 6.53367187 12.01161133 7.078125 13.10742188 C7.74310959 14.44607555 8.40726854 15.78513992 9.0703125 17.12475586 C9.72996209 18.4553148 10.43871334 19.76202837 11.1796875 21.04907227 C12 23 12 23 11 26 C-0.47721379 7.81788469 -0.47721379 7.81788469 0 0 Z " fill="#E07836" transform="translate(11,382)"/>
<path d="M0 0 C0.99 0.33 1.98 0.66 3 1 C1.51697598 5.44907205 -2.08285501 7.74579392 -6 10 C-6.66 10 -7.32 10 -8 10 C-8 10.66 -8 11.32 -8 12 C-9.65 12.66 -11.3 13.32 -13 14 C-13 13.34 -13 12.68 -13 12 C-13.66 11.34 -14.32 10.68 -15 10 C-10.25 9 -10.25 9 -8 9 C-7.67 8.01 -7.34 7.02 -7 6 C-5.68 6 -4.36 6 -3 6 C-3 5.34 -3 4.68 -3 4 C-2.34 4 -1.68 4 -1 4 C-0.67 2.68 -0.34 1.36 0 0 Z " fill="#E6772D" transform="translate(424,649)"/>
<path d="M0 0 C1.0828125 0.37125 1.0828125 0.37125 2.1875 0.75 C-1.11265998 4.88937592 -3.98574411 8.33662205 -8.8125 10.75 C-8.57336492 6.6049919 -8.38557276 4.38674751 -5.5625 1.25 C-2.8125 -0.25 -2.8125 -0.25 0 0 Z " fill="#E87C2F" transform="translate(152.8125,388.25)"/>
<path d="M0 0 C0.33 1.32 0.66 2.64 1 4 C0.01 4.33 -0.98 4.66 -2 5 C-2.73323796 7.01508358 -2.73323796 7.01508358 -3 9 C-4.65 9.33 -6.3 9.66 -8 10 C-8.061875 10.598125 -8.12375 11.19625 -8.1875 11.8125 C-9.33938899 14.91373958 -11.06759592 15.64108103 -14 17 C-14.66 16.67 -15.32 16.34 -16 16 C-10.72 10.72 -5.44 5.44 0 0 Z " fill="#E7853F" transform="translate(124,171)"/>
<path d="M0 0 C3.63 0 7.26 0 11 0 C11 0.99 11 1.98 11 3 C12.32 3 13.64 3 15 3 C15 4.98 15 6.96 15 9 C14.41992188 8.67386719 13.83984375 8.34773438 13.2421875 8.01171875 C8.87511471 5.56875229 4.50021368 3.19241179 0 1 C0 0.67 0 0.34 0 0 Z " fill="#EB8A2F" transform="translate(369,113)"/>
<path d="M0 0 C6.01238622 0.6499877 11.38562734 2.88200313 17 5 C21.34559143 6.58781225 25.40123251 7.4481479 30 8 C30 8.33 30 8.66 30 9 C21.21327603 9.31951724 13.95904437 7.67340509 6 4 C5.05125 3.649375 4.1025 3.29875 3.125 2.9375 C1 2 1 2 0 0 Z " fill="#FFE2CA" transform="translate(298,672)"/>
<path d="M0 0 C0 3.56422956 -0.84269616 4.65332498 -2.8125 7.5625 C-3.33457031 8.34753906 -3.85664062 9.13257813 -4.39453125 9.94140625 C-6 12 -6 12 -9 14 C-9.99 14 -10.98 14 -12 14 C-12 14.66 -12 15.32 -12 16 C-12.66 15.67 -13.32 15.34 -14 15 C-10.83618873 11.11303187 -7.5949523 7.50277403 -4 4 C-3.236875 3.236875 -2.47375 2.47375 -1.6875 1.6875 C-1.130625 1.130625 -0.57375 0.57375 0 0 Z " fill="#FDECD4" transform="translate(622,456)"/>
<path d="M0 0 C0 4.76356015 -2.05644737 7.35925108 -5.3125 10.6875 C-8.07201648 13.38928601 -9.99030642 14.87849413 -14 15 C-9.59156563 9.70987876 -4.92440206 4.81191572 0 0 Z " fill="#FDE4C9" transform="translate(546,532)"/>
<path d="M0 0 C0.66 0.33 1.32 0.66 2 1 C0.91081033 7.86476118 -0.90238801 13.77470211 -4 20 C-4.66 20 -5.32 20 -6 20 C-6.33 20.66 -6.66 21.32 -7 22 C-7.66 21.01 -8.32 20.02 -9 19 C-7.68 18.67 -6.36 18.34 -5 18 C-4.67 16.02 -4.34 14.04 -4 12 C-3.34 12 -2.68 12 -2 12 C-2 10.02 -2 8.04 -2 6 C-1.34 6 -0.68 6 0 6 C0 4.02 0 2.04 0 0 Z " fill="#EE9B46" transform="translate(683,373)"/>
<path d="M0 0 C0.66 0 1.32 0 2 0 C2 0.66 2 1.32 2 2 C2.99 2.33 3.98 2.66 5 3 C6.60546875 4.84765625 6.60546875 4.84765625 8.1875 7.0625 C8.71730469 7.79597656 9.24710938 8.52945312 9.79296875 9.28515625 C10.19128906 9.85105469 10.58960938 10.41695313 11 11 C10.01 11.99 9.02 12.98 8 14 C7.34 13.67 6.68 13.34 6 13 C6.33 11.35 6.66 9.7 7 8 C5.35 8.66 3.7 9.32 2 10 C2 9.01 2 8.02 2 7 C2.66 7 3.32 7 4 7 C4 6.34 4 5.68 4 5 C3.01 5 2.02 5 1 5 C0.67 3.35 0.34 1.7 0 0 Z " fill="#EE972F" transform="translate(656,260)"/>
<path d="M0 0 C1.33897583 0.95043374 2.67105427 1.91059147 4 2.875 C4.7425 3.40867187 5.485 3.94234375 6.25 4.4921875 C6.8275 4.98976562 7.405 5.48734375 8 6 C8 6.66 8 7.32 8 8 C7.34 8 6.68 8 6 8 C5.67 8.99 5.34 9.98 5 11 C2.65941363 8.87219421 1.29299694 6.88437779 0 4 C-1.32 4 -2.64 4 -4 4 C-4 3.34 -4 2.68 -4 2 C-2.68 2 -1.36 2 0 2 C0 1.34 0 0.68 0 0 Z " fill="#F1901E" transform="translate(520,124)"/>
<path d="M0 0 C0 3.26347266 -0.41514153 4.22649768 -2 7 C-2.5775 8.0725 -3.155 9.145 -3.75 10.25 C-6 13 -6 13 -9.25 13.375 C-10.1575 13.25125 -11.065 13.1275 -12 13 C-8.19524578 8.43969176 -4.25030379 4.14910608 0 0 Z " fill="#EB843D" transform="translate(163,475)"/>
<path d="M0 0 C0.66 0 1.32 0 2 0 C2 1.32 2 2.64 2 4 C1.34 4 0.68 4 0 4 C0.11163587 7.45889667 0.2418243 10.91687099 0.375 14.375 C0.4059375 15.34050781 0.436875 16.30601562 0.46875 17.30078125 C0.72677668 23.70844389 1.54116357 29.75494579 3 36 C1 35 1 35 -0.1105957 32.33886719 C-1.0199794 28.92499635 -1.24379245 26.10289659 -1.23046875 22.578125 C-1.22853516 21.38832031 -1.22660156 20.19851563 -1.22460938 18.97265625 C-1.21236328 17.74417969 -1.20011719 16.51570313 -1.1875 15.25 C-1.18685547 14.00605469 -1.18621094 12.76210938 -1.18554688 11.48046875 C-1.14050052 2.28100103 -1.14050052 2.28100103 0 0 Z " fill="#FEEDD4" transform="translate(450,326)"/>
<path d="M0 0 C0.66 0.99 1.32 1.98 2 3 C1.625 4.875 1.625 4.875 1 7 C0.96213099 8.66623639 0.95372155 10.33397597 1 12 C0.01 12.33 -0.98 12.66 -2 13 C-2.33 13.66 -2.66 14.32 -3 15 C-5.0625 15.625 -5.0625 15.625 -7 16 C-5.80100302 12.9168649 -4.52299523 9.93720508 -3 7 C-2.34 7 -1.68 7 -1 7 C-0.67 4.69 -0.34 2.38 0 0 Z " fill="#ED8A42" transform="translate(391,548)"/>
<path d="M0 0 C0.66 0 1.32 0 2 0 C2.45842179 3.53366794 2.18346888 4.7506425 0.03125 7.67578125 C-1.22171875 8.98095703 -1.22171875 8.98095703 -2.5 10.3125 C-3.3353125 11.19550781 -4.170625 12.07851562 -5.03125 12.98828125 C-5.6809375 13.65214844 -6.330625 14.31601563 -7 15 C-8.32 14.67 -9.64 14.34 -11 14 C-9.88121617 12.82737096 -8.75476949 11.66204862 -7.625 10.5 C-6.99851562 9.8503125 -6.37203125 9.200625 -5.7265625 8.53125 C-4 7 -4 7 -2 7 C-2 6.34 -2 5.68 -2 5 C-1.34 4.67 -0.68 4.34 0 4 C0 2.68 0 1.36 0 0 Z " fill="#FDEFD7" transform="translate(536,137)"/>
<path d="M0 0 C0.763125 0.639375 1.52625 1.27875 2.3125 1.9375 C4.88246713 4.14232781 4.88246713 4.14232781 8 5 C8.6875 7.0625 8.6875 7.0625 9 9 C8.01 9.33 7.02 9.66 6 10 C6 10.66 6 11.32 6 12 C5.01 12.33 4.02 12.66 3 13 C2.86722656 12.31292969 2.73445312 11.62585938 2.59765625 10.91796875 C2.42105469 10.01691406 2.24445312 9.11585938 2.0625 8.1875 C1.88847656 7.29417969 1.71445312 6.40085938 1.53515625 5.48046875 C1.02258847 2.88602829 1.02258847 2.88602829 0 0 Z " fill="#EB8F27" transform="translate(528,132)"/>
<path d="M0 0 C3.07553937 5.14171411 2.32886357 10.74688566 2.3125 16.5625 C2.32861328 17.71169922 2.34472656 18.86089844 2.36132812 20.04492188 C2.36229492 21.69524414 2.36229492 21.69524414 2.36328125 23.37890625 C2.36775269 24.88819702 2.36775269 24.88819702 2.37231445 26.42797852 C1.94996237 29.34566982 1.288491 30.22056682 -1 32 C-0.83628906 30.76378906 -0.67257812 29.52757812 -0.50390625 28.25390625 C0.1379312 22.47736922 0.11011588 16.74297416 0.0625 10.9375 C0.05573242 9.35291992 0.05573242 9.35291992 0.04882812 7.73632812 C0.03715918 5.15749092 0.02078885 2.57877706 0 0 Z " fill="#F6AC7A" transform="translate(393,516)"/>
<path d="M0 0 C0.66 0 1.32 0 2 0 C2.33 0.66 2.66 1.32 3 2 C3.66 2 4.32 2 5 2 C5.33 4.64 5.66 7.28 6 10 C6.66 10 7.32 10 8 10 C8.33 9.34 8.66 8.68 9 8 C8.67 10.97 8.34 13.94 8 17 C6.0549 14.08235 5.54723683 12.37462715 5 9 C4.34 9 3.68 9 3 9 C2.01 6.03 1.02 3.06 0 0 Z " fill="#EA8D39" transform="translate(399,138)"/>
<path d="M0 0 C1.32 0.33 2.64 0.66 4 1 C4 1.99 4 2.98 4 4 C4.94875 3.484375 5.8975 2.96875 6.875 2.4375 C7.90625 1.963125 8.9375 1.48875 10 1 C10.66 1.33 11.32 1.66 12 2 C10.23628182 3.03307771 8.46374967 4.05112049 6.6875 5.0625 C5.20830078 5.91521484 5.20830078 5.91521484 3.69921875 6.78515625 C1 8 1 8 -2 7 C-1.42415568 4.61435923 -0.77772405 2.33317216 0 0 Z " fill="#E57B27" transform="translate(361,297)"/>
<path d="M0 0 C0.33 0.66 0.66 1.32 1 2 C0.67 2.99 0.34 3.98 0 5 C-0.639375 5.309375 -1.27875 5.61875 -1.9375 5.9375 C-4.486349 7.25054342 -4.78245927 8.48374915 -6 11 C-6.99 11.33 -7.98 11.66 -9 12 C-9.33 12.99 -9.66 13.98 -10 15 C-11.65 15.33 -13.3 15.66 -15 16 C-10.30233025 10.33870569 -5.25276628 5.14771096 0 0 Z " fill="#E38547" transform="translate(57,238)"/>
<path d="M0 0 C0.85722656 0.40992188 1.71445312 0.81984375 2.59765625 1.2421875 C11.07265765 5.25219851 11.07265765 5.25219851 20 8 C16.17206387 9.37805701 12.94751261 8.58481668 9 8 C8.01 8.495 8.01 8.495 7 9 C7 8.34 7 7.68 7 7 C5.68 6.67 4.36 6.34 3 6 C3.33 5.67 3.66 5.34 4 5 C3.34 4.67 2.68 4.34 2 4 C2 3.34 2 2.68 2 2 C1.34 2 0.68 2 0 2 C0 1.34 0 0.68 0 0 Z " fill="#E38031" transform="translate(311,223)"/>
<path d="M0 0 C5.44047757 2.57706832 10.28113362 5.24416758 15 9 C15.33 9.99 15.66 10.98 16 12 C14.35 12 12.7 12 11 12 C11 11.34 11 10.68 11 10 C10.01 9.67 9.02 9.34 8 9 C8 8.01 8 7.02 8 6 C7.4225 5.71125 6.845 5.4225 6.25 5.125 C4.16666667 4.08333333 2.08333333 3.04166667 0 2 C0 1.34 0 0.68 0 0 Z " fill="#EA9533" transform="translate(603,211)"/>
<path d="M0 0 C0 4.41119214 -2.05498224 6.85946133 -4.8125 10.1875 C-7.4029167 12.33384526 -9.77676243 13.12093521 -13 14 C-8.88380164 9.08064098 -4.59589638 4.47352044 0 0 Z " fill="#FDE4C7" transform="translate(471,205)"/>
<path d="M0 0 C3.3 0.33 6.6 0.66 10 1 C8 5 8 5 7 6 C5.00041636 6.04080783 2.99954746 6.04254356 1 6 C0.4465236 3.92446352 0 2.15634036 0 0 Z " fill="#F3921F" transform="translate(593,210)"/>
<path d="M0 0 C0.33 1.32 0.66 2.64 1 4 C0.34 4 -0.32 4 -1 4 C-1.2475 4.5775 -1.495 5.155 -1.75 5.75 C-3.2127149 8.38288682 -4.63826769 10.12450669 -7 12 C-9.1328125 11.60546875 -9.1328125 11.60546875 -11 11 C-10.0479279 9.99403703 -9.08812654 8.99538437 -8.125 8 C-7.32449219 7.1646875 -7.32449219 7.1646875 -6.5078125 6.3125 C-5 5 -5 5 -3 5 C-2.690625 4.360625 -2.38125 3.72125 -2.0625 3.0625 C-1 1 -1 1 0 0 Z " fill="#FCE4CA" transform="translate(515,563)"/>
<path d="M0 0 C4.11273761 0.67775451 7.75358274 1.96923271 11.625 3.5 C16.28208856 5.33370073 16.28208856 5.33370073 21 7 C20.67 7.66 20.34 8.32 20 9 C12.84870304 7.12849037 6.50594543 4.50213658 0 1 C0 0.67 0 0.34 0 0 Z " fill="#E37D37" transform="translate(262,299)"/>
<path d="M0 0 C0 3.56216738 -0.7021901 4.22928478 -2.875 6.9375 C-4.94538063 9.53297716 -6.60834145 11.98023607 -8 15 C-8.33 14.01 -8.66 13.02 -9 12 C-9.66 12 -10.32 12 -11 12 C-9.85996765 8.57990294 -8.77829802 7.71130558 -6.0625 5.4375 C-3.96656037 3.66869432 -1.94005112 1.94005112 0 0 Z " fill="#FDE8D0" transform="translate(143,261)"/>
<path d="M0 0 C4.88049925 3.9419417 9.0580583 8.11950075 13 13 C11.35 12.67 9.7 12.34 8 12 C8 11.34 8 10.68 8 10 C7.34 10 6.68 10 6 10 C5.525625 9.360625 5.05125 8.72125 4.5625 8.0625 C3.0908635 5.71627037 3.0908635 5.71627037 0 5 C0 3.35 0 1.7 0 0 Z " fill="#EC9B3E" transform="translate(620,223)"/>
<path d="M0 0 C1.32 0.66 2.64 1.32 4 2 C0.62546316 5.67229009 -2.37455093 8.08948843 -7 10 C-7.99 10 -8.98 10 -10 10 C-6.7 6.7 -3.4 3.4 0 0 Z " fill="#EE922D" transform="translate(549,220)"/>
<path d="M0 0 C1.32 0.33 2.64 0.66 4 1 C4 1.66 4 2.32 4 3 C6.33214148 4.20628008 8.49642139 5.1654738 11 6 C11 6.99 11 7.98 11 9 C11.66 9 12.32 9 13 9 C12.67 10.32 12.34 11.64 12 13 C9.99698146 11.0238076 7.99750133 9.04425526 6 7.0625 C5.42765625 6.49853516 4.8553125 5.93457031 4.265625 5.35351562 C2.82474495 3.92121224 1.41012857 2.46258871 0 1 C0 0.67 0 0.34 0 0 Z " fill="#E57D39" transform="translate(221,605)"/>
<path d="M0 0 C1.32 0 2.64 0 4 0 C4 0.99 4 1.98 4 3 C4.78375 2.938125 5.5675 2.87625 6.375 2.8125 C7.674375 2.9053125 7.674375 2.9053125 9 3 C11.1519437 6.22791555 11.20086443 7.28400809 11 11 C6.86378916 7.6189962 3.18683431 4.33409466 0 0 Z " fill="#E87A32" transform="translate(149,533)"/>
<path d="M0 0 C0 5.05059211 -3.60064491 8.47172725 -7 12 C-10.4375 13.5625 -10.4375 13.5625 -13 14 C-8.88380164 9.08064098 -4.59589638 4.47352044 0 0 Z " fill="#E6883E" transform="translate(157,138)"/>
<path d="M0 0 C1.98 1.32 3.96 2.64 6 4 C5.505 4.433125 5.01 4.86625 4.5 5.3125 C2.66781808 6.99740483 2.66781808 6.99740483 3 10 C2.01 10 1.02 10 0 10 C0 8.68 0 7.36 0 6 C-0.99 5.67 -1.98 5.34 -3 5 C-2.01 4.67 -1.02 4.34 0 4 C-0.33 3.01 -0.66 2.02 -1 1 C-0.67 0.67 -0.34 0.34 0 0 Z " fill="#F29126" transform="translate(482,86)"/>
<path d="M0 0 C0.66 0 1.32 0 2 0 C2 0.99 2 1.98 2 3 C2.66 3.33 3.32 3.66 4 4 C2.8572081 5.16964602 1.71068285 6.33564556 0.5625 7.5 C-0.07558594 8.1496875 -0.71367187 8.799375 -1.37109375 9.46875 C-3 11 -3 11 -4 11 C-4 9.35 -4 7.7 -4 6 C-3.34 5.67 -2.68 5.34 -2 5 C-1.6278958 3.67696283 -1.29369827 2.34262065 -1 1 C-0.67 0.67 -0.34 0.34 0 0 Z " fill="#EA8033" transform="translate(156,241)"/>
<path d="M0 0 C1.98 0.66 3.96 1.32 6 2 C2.83047153 5.26008643 -0.39937989 8.22237877 -4 11 C-4.33 9.68 -4.66 8.36 -5 7 C-2 5 -2 5 1 5 C0.67 3.35 0.34 1.7 0 0 Z " fill="#E8832B" transform="translate(304,118)"/>
<path d="M0 0 C4 0 4 0 5.8515625 1.6796875 C6.43679687 2.40414062 7.02203125 3.12859375 7.625 3.875 C8.21539062 4.59429688 8.80578125 5.31359375 9.4140625 6.0546875 C9.93742188 6.69664062 10.46078125 7.33859375 11 8 C11.66 8.66 12.32 9.32 13 10 C12.67 10.99 12.34 11.98 12 13 C9.99698146 11.0238076 7.99750133 9.04425526 6 7.0625 C5.42765625 6.49853516 4.8553125 5.93457031 4.265625 5.35351562 C2.82474495 3.92121224 1.41012857 2.46258871 0 1 C0 0.67 0 0.34 0 0 Z " fill="#E37E3A" transform="translate(136,520)"/>
<path d="M0 0 C0.33 0 0.66 0 1 0 C0.42978066 5.3503559 -0.20734361 10.67787852 -1 16 C-1.33 16 -1.66 16 -2 16 C-2.33 17.65 -2.66 19.3 -3 21 C-3.33 21 -3.66 21 -4 21 C-4.27166506 13.52921098 -3.57770698 6.67437773 0 0 Z " fill="#E67D3D" transform="translate(8,310)"/>
<path d="M0 0 C0.8125 1.625 0.8125 1.625 1 4 C-1.57896024 7.98566582 -2.68894669 9.65368403 -7.3125 10.875 C-8.6428125 10.936875 -8.6428125 10.936875 -10 11 C-6.79239749 7.19364503 -3.59253891 3.45436433 0 0 Z " fill="#E7823B" transform="translate(88,207)"/>
<path d="M0 0 C0.66 1.32 1.32 2.64 2 4 C-1.3 7.3 -4.6 10.6 -8 14 C-8.66 13.67 -9.32 13.34 -10 13 C-9.67 11.68 -9.34 10.36 -9 9 C-7.35 8.67 -5.7 8.34 -4 8 C-4 7.34 -4 6.68 -4 6 C-3.34 6 -2.68 6 -2 6 C-1.855625 5.38125 -1.71125 4.7625 -1.5625 4.125 C-1 2 -1 2 0 0 Z " fill="#EB8B28" transform="translate(508,163)"/>
<path d="M0 0 C2.3125 -0.25 2.3125 -0.25 5 0 C6.97610386 2.04424538 8 3.1176825 8 6 C8.66 6 9.32 6 10 6 C9.67 7.32 9.34 8.64 9 10 C7.49702124 8.52386015 5.99768715 7.04400843 4.5 5.5625 C3.6646875 4.73878906 2.829375 3.91507813 1.96875 3.06640625 C0 1 0 1 0 0 Z " fill="#E77A34" transform="translate(192,576)"/>
<path d="M0 0 C0.98120464 3.05263664 0.98120464 4.94736336 0 8 C-0.7425 7.95875 -1.485 7.9175 -2.25 7.875 C-5.11960046 8.00543638 -6.52093306 8.6545235 -9 10 C-8.06409496 8.8944811 -7.12620142 7.79064547 -6.1875 6.6875 C-5.66542969 6.07261719 -5.14335938 5.45773437 -4.60546875 4.82421875 C-3.12827531 3.14575321 -1.59960869 1.56117966 0 0 Z " fill="#E9822A" transform="translate(536,454)"/>
<path d="M0 0 C5.29012124 4.40843437 10.18808428 9.07559794 15 14 C11.08087178 14 9.95856266 12.4275386 7 10 C6.34 10 5.68 10 5 10 C4.9175 9.4225 4.835 8.845 4.75 8.25 C3.7973369 5.39201069 2.13946926 4.07045412 0 2 C0 1.34 0 0.68 0 0 Z " fill="#E0772C" transform="translate(157,298)"/>
<path d="M0 0 C1.32 0.66 2.64 1.32 4 2 C-0.625 7.875 -0.625 7.875 -4 9 C-3.6875 5.625 -3.6875 5.625 -3 2 C-2.01 1.34 -1.02 0.68 0 0 Z " fill="#EE8725" transform="translate(645,428)"/>
<path d="M0 0 C2.74148672 0.37047118 4.58593199 0.68587944 6.8125 2.375 C8 4 8 4 8 7 C8.99 7 9.98 7 11 7 C11.33 8.65 11.66 10.3 12 12 C7.47384007 8.32167983 3.60575001 4.58913637 0 0 Z " fill="#FDE1C3" transform="translate(156,296)"/>
<path d="M0 0 C0.33 0.99 0.66 1.98 1 3 C-0.28965176 4.37562854 -1.62689293 5.70766393 -3 7 C-3.66 7 -4.32 7 -5 7 C-5.226875 7.61875 -5.45375 8.2375 -5.6875 8.875 C-7.37929835 11.61410209 -8.99244161 12.05024472 -12 13 C-8.19524578 8.43969176 -4.25030379 4.14910608 0 0 Z " fill="#FEEFDA" transform="translate(172,232)"/>
<path d="M0 0 C0 4.09939665 -1.52298101 5.78656995 -4 9 C-6.625 10.9375 -6.625 10.9375 -9 12 C-9.66 11.67 -10.32 11.34 -11 11 C-7.37 7.37 -3.74 3.74 0 0 Z " fill="#E7843E" transform="translate(107,188)"/>
<path d="M0 0 C0.66 0.33 1.32 0.66 2 1 C1.01 3.31 0.02 5.62 -1 8 C-1.7425 7.79375 -2.485 7.5875 -3.25 7.375 C-6.32330841 6.95591249 -7.42786866 7.38050989 -10 9 C-6.83047153 5.73991357 -3.60062011 2.77762123 0 0 Z " fill="#EB8E32" transform="translate(273,26)"/>
<path d="M0 0 C3.03808813 1.18147872 4.68004501 2.41871532 6.2578125 5.28515625 C9.4650927 12.89964316 9.4650927 12.89964316 8 17 C7.74605469 16.31292969 7.49210938 15.62585938 7.23046875 14.91796875 C6.88628906 14.01691406 6.54210937 13.11585938 6.1875 12.1875 C5.85105469 11.29417969 5.51460937 10.40085937 5.16796875 9.48046875 C4.02599942 7.05521615 2.92955719 5.80092004 1 4 C0.3125 1.8125 0.3125 1.8125 0 0 Z " fill="#FDEDCE" transform="translate(674,282)"/>
<path d="M0 0 C0.66 0.33 1.32 0.66 2 1 C2 1.66 2 2.32 2 3 C2.66 3 3.32 3 4 3 C4.33 2.01 4.66 1.02 5 0 C5.66 0 6.32 0 7 0 C5.50902342 3.7952131 3.24299151 5.61042731 0 8 C-2 5 -2 5 -1.6875 2.875 C-1 1 -1 1 0 0 Z " fill="#E67F30" transform="translate(136,260)"/>
<path d="M0 0 C-0.99 0.495 -0.99 0.495 -2 1 C-2 1.66 -2 2.32 -2 3 C-3.0725 3.268125 -4.145 3.53625 -5.25 3.8125 C-8.56508928 4.86227827 -10.43877646 5.74612328 -13 8 C-13.66 7.67 -14.32 7.34 -15 7 C-13.75312408 6.03760548 -12.50235031 5.08025991 -11.25 4.125 C-10.55390625 3.59132812 -9.8578125 3.05765625 -9.140625 2.5078125 C-3.78780774 -1.26260258 -3.78780774 -1.26260258 0 0 Z " fill="#EA993E" transform="translate(565,212)"/>
<path d="M0 0 C0.33 0.99 0.66 1.98 1 3 C0.01 3.33 -0.98 3.66 -2 4 C-2.144375 4.639375 -2.28875 5.27875 -2.4375 5.9375 C-2.623125 6.618125 -2.80875 7.29875 -3 8 C-4.9375 9.0625 -4.9375 9.0625 -7 10 C-7.99 11.485 -7.99 11.485 -9 13 C-9.99 12.67 -10.98 12.34 -12 12 C-8.04 8.04 -4.08 4.08 0 0 Z " fill="#FDE4C3" transform="translate(524,152)"/>
<path d="M0 0 C0 3.10551666 -0.5393715 4.35261084 -2 7 C-2.99 7 -3.98 7 -5 7 C-5.33 8.32 -5.66 9.64 -6 11 C-7.65 11.33 -9.3 11.66 -11 12 C-7.49102731 7.81576108 -3.91939465 3.80411834 0 0 Z " fill="#E9893D" transform="translate(169,126)"/>
<path d="M0 0 C1.32 0 2.64 0 4 0 C4.33 0.66 4.66 1.32 5 2 C5.66 2.2475 6.32 2.495 7 2.75 C9 4 9 4 9.75 7.125 C9.87375 8.548125 9.87375 8.548125 10 10 C2.51708428 3.84965831 2.51708428 3.84965831 0 0 Z " fill="#E67C37" transform="translate(246,630)"/>
<path d="M0 0 C2.31 0.33 4.62 0.66 7 1 C6.1875 2.9375 6.1875 2.9375 5 5 C4.01 5.33 3.02 5.66 2 6 C1.34 5.34 0.68 4.68 0 4 C0 2.68 0 1.36 0 0 Z " fill="#EA7821" transform="translate(473,596)"/>
<path d="M0 0 C0.99 0.33 1.98 0.66 3 1 C0.03 4.3 -2.94 7.6 -6 11 C-6.33 9.68 -6.66 8.36 -7 7 C-6.34 7 -5.68 7 -5 7 C-4.731875 6.401875 -4.46375 5.80375 -4.1875 5.1875 C-3.01506533 3.02775192 -1.80630718 1.64209744 0 0 Z " fill="#FEEED8" transform="translate(207,427)"/>
<path d="M0 0 C0.66 0.33 1.32 0.66 2 1 C0.78425776 2.63506773 -0.44819513 4.2577186 -1.6875 5.875 C-2.37199219 6.77992188 -3.05648437 7.68484375 -3.76171875 8.6171875 C-6.09918116 11.10558552 -7.77089231 12.01599871 -11 13 C-9.36825467 9.82716186 -7.69306443 7.59157872 -4.9375 5.375 C-1.88193282 3.14603047 -1.88193282 3.14603047 0 0 Z " fill="#FDE4CA" transform="translate(145,398)"/>
<path d="M0 0 C0.99 0.33 1.98 0.66 3 1 C-0.3 3.97 -3.6 6.94 -7 10 C-7.33 8.68 -7.66 7.36 -8 6 C-6.3125 3.75 -6.3125 3.75 -4 2 C-2.68 2 -1.36 2 0 2 C0 1.34 0 0.68 0 0 Z " fill="#FEE9D0" transform="translate(243,393)"/>
<path d="M0 0 C1.14814997 2.29629994 1.30769809 4.07698086 1.5625 6.625 C1.64628906 7.44226563 1.73007812 8.25953125 1.81640625 9.1015625 C1.87699219 9.72804688 1.93757813 10.35453125 2 11 C-1.39417765 7.87378374 -3.6062718 5.43458973 -5 1 C-3.35 0.67 -1.7 0.34 0 0 Z " fill="#EA872E" transform="translate(460,363)"/>
<path d="M0 0 C1 2 1 2 0.875 3.9375 C-0.36322935 6.85618347 -2.26677251 7.50323256 -5 9 C-6.75149165 10.58245275 -6.75149165 10.58245275 -8 12 C-8.66 11.67 -9.32 11.34 -10 11 C-8.52116808 9.35386588 -7.04192523 7.70810092 -5.5625 6.0625 C-4.73878906 5.14597656 -3.91507813 4.22945313 -3.06640625 3.28515625 C-1 1 -1 1 0 0 Z " fill="#E68443" transform="translate(41,254)"/>
<path d="M0 0 C6.6 0.33 13.2 0.66 20 1 C20 1.33 20 1.66 20 2 C11.09 2.99 11.09 2.99 2 4 C2 3.34 2 2.68 2 2 C1.34 1.34 0.68 0.68 0 0 Z " fill="#DE843D" transform="translate(332,232)"/>
<path d="M0 0 C1.98 0 3.96 0 6 0 C1.2216997 4.36279592 -5.18905148 6.1875 -11.5625 6.1875 C-12.696875 6.125625 -13.83125 6.06375 -15 6 C-15 5.67 -15 5.34 -15 5 C-12.69 5 -10.38 5 -8 5 C-8 4.34 -8 3.68 -8 3 C-5.69 3 -3.38 3 -1 3 C-0.67 2.01 -0.34 1.02 0 0 Z " fill="#FEF2DC" transform="translate(369,226)"/>
<path d="M0 0 C1.17539996 0.92652701 2.34010577 1.86663387 3.5 2.8125 C4.1496875 3.33457031 4.799375 3.85664062 5.46875 4.39453125 C7 6 7 6 7 9 C6.34 9 5.68 9 5 9 C4.34 9.66 3.68 10.32 3 11 C3 10.01 3 9.02 3 8 C2.01 7.34 1.02 6.68 0 6 C-0.1875 2.875 -0.1875 2.875 0 0 Z " fill="#F08F25" transform="translate(510,114)"/>
<path d="M0 0 C1.32 0.33 2.64 0.66 4 1 C4 1.66 4 2.32 4 3 C4.66 3.33 5.32 3.66 6 4 C7.33333333 4.66666667 8.66666667 5.33333333 10 6 C9.34 7.32 8.68 8.64 8 10 C6.66070495 8.71451591 5.32871357 7.42141845 4 6.125 C2.88625 5.04605469 2.88625 5.04605469 1.75 3.9453125 C0 2 0 2 0 0 Z " fill="#E77C37" transform="translate(212,595)"/>
<path d="M0 0 C0 2.62113708 -0.31292445 4.50935112 -1 7 C-2.32 7 -3.64 7 -5 7 C-5 7.99 -5 8.98 -5 10 C-6.65 10.33 -8.3 10.66 -10 11 C-6.79239749 7.19364503 -3.59253891 3.45436433 0 0 Z " fill="#E5873E" transform="translate(138,157)"/>
<path d="M0 0 C2 3 2 3 2 5 C0.68 5 -0.64 5 -2 5 C-2.33 5.99 -2.66 6.98 -3 8 C-5.4375 9.75 -5.4375 9.75 -8 11 C-8.66 10.67 -9.32 10.34 -10 10 C-6.7 6.7 -3.4 3.4 0 0 Z " fill="#EA8330" transform="translate(526,464)"/>
<path d="M0 0 C0 3.26229641 -0.21770324 4.32655486 -2 7 C-5.125 9.25 -5.125 9.25 -8 11 C-8.66 10.67 -9.32 10.34 -10 10 C-6.7 6.7 -3.4 3.4 0 0 Z " fill="#E78944" transform="translate(174,464)"/>
<path d="M0 0 C0.33 0.66 0.66 1.32 1 2 C-0.87577357 6.06417607 -2.93582393 8.12422643 -7 10 C-7.66 9.67 -8.32 9.34 -9 9 C-6.03 6.03 -3.06 3.06 0 0 Z " fill="#FEE3CA" transform="translate(107,436)"/>
<path d="M0 0 C-0.3259949 3.04261908 -0.97895261 3.9801219 -3.25 6.125 C-5.80062367 7.8640616 -8.09139271 9.00276322 -11 10 C-2.81818182 0 -2.81818182 0 0 0 Z " fill="#EA8A44" transform="translate(219,420)"/>
<path d="M0 0 C0.99 0.33 1.98 0.66 3 1 C2.55530671 6.03985731 0.28656638 8.37634988 -3 12 C-3.66 10.68 -4.32 9.36 -5 8 C-4.34 8 -3.68 8 -3 8 C-2.67 7.34 -2.34 6.68 -2 6 C-1.34 6 -0.68 6 0 6 C0 4.02 0 2.04 0 0 Z " fill="#EA9236" transform="translate(673,394)"/>
<path d="M0 0 C-0.33 1.32 -0.66 2.64 -1 4 C-4.28696233 4.79953138 -5.71023192 5.09658936 -9 4 C-9 3.01 -9 2.02 -9 1 C-5.94152152 0.45627049 -3.11227195 0 0 0 Z " fill="#F68B19" transform="translate(320,10)"/>
<path d="M0 0 C1.32 0.33 2.64 0.66 4 1 C2.71480435 3.86697492 1.42870746 5.97607712 -1 8 C-1.66 8 -2.32 8 -3 8 C-2.67 6.35 -2.34 4.7 -2 3 C-1.34 3 -0.68 3 0 3 C0 2.01 0 1.02 0 0 Z " fill="#E97824" transform="translate(463,609)"/>
<path d="M0 0 C0 4.13122742 -1.4277594 5.81854452 -4 9 C-7.25 10.375 -7.25 10.375 -10 11 C-6.79239749 7.19364503 -3.59253891 3.45436433 0 0 Z " fill="#FCDCBE" transform="translate(494,584)"/>
<path d="M0 0 C0.33 1.32 0.66 2.64 1 4 C0.01 4.33 -0.98 4.66 -2 5 C-2.804375 5.804375 -3.60875 6.60875 -4.4375 7.4375 C-6.69939394 9.69939394 -8.17586333 10.71085056 -11 12 C-7.49102731 7.81576108 -3.91939465 3.80411834 0 0 Z " fill="#FDDBBC" transform="translate(531,547)"/>
<path d="M0 0 C0.66 0 1.32 0 2 0 C2.53293835 1.74635165 3.05090663 3.49727652 3.5625 5.25 C3.85253906 6.22453125 4.14257812 7.1990625 4.44140625 8.203125 C4.99249836 10.96243932 4.93789609 12.3912824 4 15 C1.54510684 9.87674471 0.49658297 5.66104589 0 0 Z " fill="#FEDEC1" transform="translate(274,538)"/>
<path d="M0 0 C4.75 0.875 4.75 0.875 7 2 C7.12375 2.639375 7.2475 3.27875 7.375 3.9375 C7.80939427 6.19851273 7.80939427 6.19851273 10.0625 7.25 C10.701875 7.4975 11.34125 7.745 12 8 C11.01 8.33 10.02 8.66 9 9 C6.9921875 7.63671875 6.9921875 7.63671875 4.875 5.6875 C4.17117187 5.05199219 3.46734375 4.41648437 2.7421875 3.76171875 C1 2 1 2 0 0 Z " fill="#DF7432" transform="translate(62,450)"/>
<path d="M0 0 C0.99 0 1.98 0 3 0 C2.67 0.99 2.34 1.98 2 3 C1.34 3 0.68 3 0 3 C-0.33 3.99 -0.66 4.98 -1 6 C-2.62332967 7.38576923 -4.28724465 8.72641268 -6 10 C-6 8.68 -6 7.36 -6 6 C-5.34 6 -4.68 6 -4 6 C-3.71125 5.38125 -3.4225 4.7625 -3.125 4.125 C-2 2 -2 2 0 0 Z " fill="#FDE9D2" transform="translate(224,410)"/>
<path d="M0 0 C-1.40844718 3.21524305 -3.10344786 5.32183868 -5.625 7.75 C-6.57246094 8.67039062 -6.57246094 8.67039062 -7.5390625 9.609375 C-8.02117187 10.06828125 -8.50328125 10.5271875 -9 11 C-9.33 10.01 -9.66 9.02 -10 8 C-9.67 7.34 -9.34 6.68 -9 6 C-8.01 6 -7.02 6 -6 6 C-5.566875 4.7934375 -5.566875 4.7934375 -5.125 3.5625 C-3.81204892 0.57188921 -3.2474503 0 0 0 Z " fill="#E8863B" transform="translate(399,277)"/>
<path d="M0 0 C1.65 0.99 3.3 1.98 5 3 C4.67 4.32 4.34 5.64 4 7 C2.02 6.34 0.04 5.68 -2 5 C-1.34 3.35 -0.68 1.7 0 0 Z " fill="#EF9126" transform="translate(426,32)"/>
<path d="M0 0 C2.31 0 4.62 0 7 0 C3.34879456 3.33370932 -1.21633909 4.97807612 -6 6 C-6.99 5.67 -7.98 5.34 -9 5 C-3.375 2 -3.375 2 0 2 C0 1.34 0 0.68 0 0 Z " fill="#FDE6C6" transform="translate(298,11)"/>
<path d="M0 0 C0.66 1.65 1.32 3.3 2 5 C-2.62 4.01 -7.24 3.02 -12 2 C-12 1.67 -12 1.34 -12 1 C-10.56274129 0.83126522 -9.12518162 0.66509263 -7.6875 0.5 C-6.88699219 0.4071875 -6.08648437 0.314375 -5.26171875 0.21875 C-3 0 -3 0 0 0 Z " fill="#FDEACA" transform="translate(384,6)"/>
<path d="M0 0 C-5.72455159 3.81636773 -11.29749495 3.29282789 -18 3 C-18 2.67 -18 2.34 -18 2 C-15.03 2 -12.06 2 -9 2 C-9 1.34 -9 0.68 -9 0 C-5.62182575 -0.84454356 -3.32534757 -1.10844919 0 0 Z " fill="#FEE6CD" transform="translate(375,680)"/>
<path d="M0 0 C0 3.72055546 -0.81297638 5.01106771 -3 8 C-6.1875 10.3125 -6.1875 10.3125 -9 12 C-9.66 11.67 -10.32 11.34 -11 11 C-9.625 9.5 -9.625 9.5 -8 8 C-7.34 8 -6.68 8 -6 8 C-5.34 6.68 -4.68 5.36 -4 4 C-3.34 4 -2.68 4 -2 4 C-1.34 2.68 -0.68 1.36 0 0 Z " fill="#FCDDBB" transform="translate(586,492)"/>
<path d="M0 0 C4.67248931 2.82522609 7.65996398 5.67760044 11 10 C10.01 10.495 10.01 10.495 9 11 C9 10.34 9 9.68 9 9 C8.401875 8.731875 7.80375 8.46375 7.1875 8.1875 C5.02775192 7.01506533 3.64209744 5.80630718 2 4 C1.01 4.495 1.01 4.495 0 5 C0 3.35 0 1.7 0 0 Z " fill="#E88134" transform="translate(406,413)"/>
<path d="M0 0 C1.17219543 0.78345715 2.33763668 1.57702836 3.5 2.375 C4.47453125 3.03628906 4.47453125 3.03628906 5.46875 3.7109375 C5.9740625 4.13632812 6.479375 4.56171875 7 5 C7 5.66 7 6.32 7 7 C4.69 6.67 2.38 6.34 0 6 C-1 3 -1 3 0 0 Z " fill="#EF942D" transform="translate(441,45)"/>
<path d="M0 0 C-1.32 0.33 -2.64 0.66 -4 1 C-4 1.66 -4 2.32 -4 3 C-6.88211302 3.96070434 -8.69850044 4.10581883 -11.6875 4.0625 C-12.89986328 4.04896484 -12.89986328 4.04896484 -14.13671875 4.03515625 C-15.05904297 4.01775391 -15.05904297 4.01775391 -16 4 C-13.03017788 2.41839705 -10.09120779 1.29656358 -6.875 0.3125 C-6.00617188 0.04050781 -5.13734375 -0.23148438 -4.2421875 -0.51171875 C-2 -1 -2 -1 0 0 Z " fill="#E98A4C" transform="translate(360,585)"/>
<path d="M0 0 C1.11328125 1.64453125 1.11328125 1.64453125 1.11328125 3.64453125 C-3.83671875 2.65453125 -8.78671875 1.66453125 -13.88671875 0.64453125 C-13.88671875 0.31453125 -13.88671875 -0.01546875 -13.88671875 -0.35546875 C-11.95166852 -0.60447521 -10.01345941 -0.82903117 -8.07421875 -1.04296875 C-6.45580078 -1.23439453 -6.45580078 -1.23439453 -4.8046875 -1.4296875 C-1.88671875 -1.35546875 -1.88671875 -1.35546875 0 0 Z " fill="#E27D33" transform="translate(354.88671875,469.35546875)"/>
<path d="M0 0 C0.66 0.33 1.32 0.66 2 1 C-1.17320782 4.53586014 -3.16743695 6.58578031 -8 7 C-3.375 1.125 -3.375 1.125 0 0 Z " fill="#E97E35" transform="translate(66,231)"/>
<path d="M0 0 C0.99 0.33 1.98 0.66 3 1 C-1.625 6.875 -1.625 6.875 -5 8 C-5.33 6.68 -5.66 5.36 -6 4 C-4.68 3.67 -3.36 3.34 -2 3 C-2 2.34 -2 1.68 -2 1 C-1.34 0.67 -0.68 0.34 0 0 Z " fill="#E98329" transform="translate(456,217)"/>
<path d="M0 0 C1.32 0.66 2.64 1.32 4 2 C4 2.99 4 3.98 4 5 C3.34 5 2.68 5 2 5 C1.67 5.66 1.34 6.32 1 7 C-0.65 5.35 -2.3 3.7 -4 2 C-3.01 2 -2.02 2 -1 2 C-0.67 1.34 -0.34 0.68 0 0 Z " fill="#EC8A2C" transform="translate(388,120)"/>
<path d="M0 0 C0.66 0.33 1.32 0.66 2 1 C1.67 1.99 1.34 2.98 1 4 C-1.875 5.3125 -1.875 5.3125 -5 6 C-5.99 5.34 -6.98 4.68 -8 4 C-6.71349294 3.30289269 -5.42059335 2.61757124 -4.125 1.9375 C-3.40570313 1.55464844 -2.68640625 1.17179687 -1.9453125 0.77734375 C-1.30335938 0.52082031 -0.66140625 0.26429687 0 0 Z " fill="#ED8F35" transform="translate(292,16)"/>
<path d="M0 0 C0 3.66842255 -0.79029126 5.10451959 -3 8 C-5.6875 8.8125 -5.6875 8.8125 -8 9 C-7.04270084 7.87411986 -6.08412105 6.7493285 -5.125 5.625 C-4.59132813 4.99851562 -4.05765625 4.37203125 -3.5078125 3.7265625 C-2.38567993 2.44163349 -1.20628025 1.20628025 0 0 Z " fill="#FCDEC1" transform="translate(503,575)"/>
<path d="M0 0 C1.32 0.33 2.64 0.66 4 1 C1.69 3.31 -0.62 5.62 -3 8 C-3.33 6.68 -3.66 5.36 -4 4 C-2.3125 1.6875 -2.3125 1.6875 0 0 Z " fill="#FEEED6" transform="translate(527,459)"/>
<path d="M0 0 C0.33 0.99 0.66 1.98 1 3 C-1.64 5.31 -4.28 7.62 -7 10 C-7.66 9.67 -8.32 9.34 -9 9 C-6.03 6.03 -3.06 3.06 0 0 Z " fill="#FEE2CB" transform="translate(97,446)"/>
<path d="M0 0 C-4.455 2.97 -4.455 2.97 -9 6 C-9.33 5.01 -9.66 4.02 -10 3 C-3.375 -1.125 -3.375 -1.125 0 0 Z " fill="#E57A28" transform="translate(384,292)"/>
<path d="M0 0 C2 3 2 3 2 5 C2.78375 5.28875 3.5675 5.5775 4.375 5.875 C7 7 7 7 9 9 C8.01 9.495 8.01 9.495 7 10 C5.49428343 8.88266271 3.99555708 7.75589965 2.5 6.625 C1.6646875 5.99851562 0.829375 5.37203125 -0.03125 4.7265625 C-0.6809375 4.15679687 -1.330625 3.58703125 -2 3 C-2 2.34 -2 1.68 -2 1 C-1.34 0.67 -0.68 0.34 0 0 Z " fill="#E5823D" transform="translate(239,280)"/>
<path d="M0 0 C0.33 0.66 0.66 1.32 1 2 C-0.65909182 6.10406925 -2.21704034 8.65195608 -6 11 C-4.88059018 6.14922412 -3.8665284 3.222107 0 0 Z " fill="#F48C1F" transform="translate(496,275)"/>
<path d="M0 0 C2.97 0.495 2.97 0.495 6 1 C6.12375 1.804375 6.2475 2.60875 6.375 3.4375 C6.684375 4.7059375 6.684375 4.7059375 7 6 C7.66 6.33 8.32 6.66 9 7 C6 7 6 7 4.39453125 5.46875 C3.87246094 4.8190625 3.35039062 4.169375 2.8125 3.5 C2.28269531 2.8503125 1.75289062 2.200625 1.20703125 1.53125 C0.80871094 1.0259375 0.41039062 0.520625 0 0 Z " fill="#E37B2F" transform="translate(206,251)"/>
<path d="M0 0 C7.26153846 0.36923077 7.26153846 0.36923077 11 3.5625 C11.99 4.7690625 11.99 4.7690625 13 6 C9.51038791 6 7.88519705 5.09620626 4.8125 3.5 C3.91144531 3.0359375 3.01039063 2.571875 2.08203125 2.09375 C1.39496094 1.7328125 0.70789063 1.371875 0 1 C0 0.67 0 0.34 0 0 Z " fill="#FEEAC4" transform="translate(601,210)"/>
<path d="M0 0 C2.50037734 2.17424117 3.43628586 3.73045798 4 7 C1.69 6.67 -0.62 6.34 -3 6 C-1.125 1.125 -1.125 1.125 0 0 Z " fill="#F19337" transform="translate(459,311)"/>
<path d="M0 0 C2.475 0.495 2.475 0.495 5 1 C5.33 2.32 5.66 3.64 6 5 C7.32 5.33 8.64 5.66 10 6 C9.67 7.32 9.34 8.64 9 10 C5.73991357 6.83047153 2.77762123 3.60062011 0 0 Z " fill="#FCDFC2" transform="translate(146,286)"/>
<path d="M0 0 C4.24822374 0.47202486 6.19989709 2.96655518 9 6 C8.67 6.99 8.34 7.98 8 9 C6.66368764 7.6905332 5.33102075 6.37734515 4 5.0625 C3.2575 4.33160156 2.515 3.60070312 1.75 2.84765625 C0 1 0 1 0 0 Z " fill="#E58134" transform="translate(226,271)"/>
<path d="M0 0 C2.31 1.98 4.62 3.96 7 6 C6.01 6.33 5.02 6.66 4 7 C4 6.34 4 5.68 4 5 C2.68 5.33 1.36 5.66 0 6 C-0.66 5.01 -1.32 4.02 -2 3 C-1.34 3 -0.68 3 0 3 C0 2.01 0 1.02 0 0 Z " fill="#F19B3C" transform="translate(641,244)"/>
<path d="M0 0 C0.99 0.33 1.98 0.66 3 1 C0.69 3.31 -1.62 5.62 -4 8 C-4.66 6.68 -5.32 5.36 -6 4 C-3.1875 1.9375 -3.1875 1.9375 0 0 Z " fill="#EB7D33" transform="translate(173,228)"/>
<path d="M0 0 C1.45606519 4.52092968 0.27032841 7.51648796 -1 12 C-1.66 12 -2.32 12 -3 12 C-3.33 12.99 -3.66 13.98 -4 15 C-3.43179252 9.54520815 -2.05362055 5.08940744 0 0 Z " fill="#FDD4AD" transform="translate(289,145)"/>
<path d="M0 0 C1.98 0.99 1.98 0.99 4 2 C2.68 2.33 1.36 2.66 0 3 C0 2.01 0 1.02 0 0 Z M-3 2 C-2.01 2.33 -1.02 2.66 0 3 C0 4.65 0 6.3 0 8 C-1.32 7.67 -2.64 7.34 -4 7 C-3.67 5.35 -3.34 3.7 -3 2 Z " fill="#EF952D" transform="translate(492,96)"/>
<path d="M0 0 C1.16959987 0.97566112 2.33561177 1.955625 3.5 2.9375 C4.1496875 3.48277344 4.799375 4.02804688 5.46875 4.58984375 C6.22671875 5.28787109 6.22671875 5.28787109 7 6 C7 6.33 7 6.66 7 7 C5.35 7 3.7 7 2 7 C1.67 6.01 1.34 5.02 1 4 C0.01 3.67 -0.98 3.34 -2 3 C-2 2.34 -2 1.68 -2 1 C-1.34 0.67 -0.68 0.34 0 0 Z " fill="#EE932D" transform="translate(434,38)"/>
<path d="M0 0 C5.05255964 0.63156995 9.29593201 2.13459373 14 4 C14 4.33 14 4.66 14 5 C8.76509271 5.383042 5.58647943 4.3382052 1 2 C0.67 1.34 0.34 0.68 0 0 Z " fill="#FEDDBE" transform="translate(298,672)"/>
<path d="M0 0 C0.99 0 1.98 0 3 0 C6 3.33333333 6 3.33333333 6 6 C6.66 6 7.32 6 8 6 C7.67 6.99 7.34 7.98 7 9 C5.82737096 7.88121617 4.66204862 6.75476949 3.5 5.625 C2.8503125 4.99851562 2.200625 4.37203125 1.53125 3.7265625 C0 2 0 2 0 0 Z " fill="#E37D3A" transform="translate(235,618)"/>
<path d="M0 0 C2.38564077 0.57584432 4.66682784 1.22227595 7 2 C7.33 3.98 7.66 5.96 8 8 C6.85073734 7.04578192 5.70569459 6.08647955 4.5625 5.125 C3.92441406 4.59132813 3.28632813 4.05765625 2.62890625 3.5078125 C1 2 1 2 0 0 Z " fill="#E67B37" transform="translate(184,568)"/>
<path d="M0 0 C0.99 0.66 1.98 1.32 3 2 C2.0479279 3.00596297 1.08812654 4.00461563 0.125 5 C-0.40867187 5.556875 -0.94234375 6.11375 -1.4921875 6.6875 C-3 8 -3 8 -5 8 C-4.67 6.35 -4.34 4.7 -4 3 C-3.01 3 -2.02 3 -1 3 C-0.67 2.01 -0.34 1.02 0 0 Z " fill="#E87823" transform="translate(515,559)"/>
<path d="M0 0 C1 4 1 4 1 6 C-1.31 6.33 -3.62 6.66 -6 7 C-4.02 4.69 -2.04 2.38 0 0 Z " fill="#E78035" transform="translate(190,448)"/>
<path d="M0 0 C10.55808656 1.92710706 10.55808656 1.92710706 15 4 C14.34 4.66 13.68 5.32 13 6 C8.71 4.35 4.42 2.7 0 1 C0 0.67 0 0.34 0 0 Z " fill="#E0873E" transform="translate(342,373)"/>
<path d="M0 0 C4.22271781 2.53363068 6.78310162 4.56620325 9 9 C7.68 8.34 6.36 7.68 5 7 C5 6.34 5 5.68 5 5 C3.35 5 1.7 5 0 5 C-0.33 4.34 -0.66 3.68 -1 3 C-0.67 2.01 -0.34 1.02 0 0 Z " fill="#E57A2F" transform="translate(148,289)"/>
<path d="M0 0 C0.99 0.66 1.98 1.32 3 2 C1.68 3.65 0.36 5.3 -1 7 C-2.32 6.34 -3.64 5.68 -5 5 C-3.35 3.35 -1.7 1.7 0 0 Z " fill="#ED8E2B" transform="translate(538,231)"/>
<path d="M0 0 C3.3 0.66 6.6 1.32 10 2 C10 2.33 10 2.66 10 3 C6.04 3.99 2.08 4.98 -2 6 C-2 4.68 -2 3.36 -2 2 C-1.34 2 -0.68 2 0 2 C0 1.34 0 0.68 0 0 Z " fill="#E78832" transform="translate(326,107)"/>
<path d="M0 0 C3.77727089 1.81309003 7.37269822 3.9073259 11 6 C8 7 8 7 5.95703125 6.22265625 C5.24933594 5.83980469 4.54164063 5.45695313 3.8125 5.0625 C3.09707031 4.68222656 2.38164062 4.30195312 1.64453125 3.91015625 C1.10183594 3.60980469 0.55914062 3.30945313 0 3 C0 2.01 0 1.02 0 0 Z " fill="#E58038" transform="translate(293,575)"/>
<path d="M0 0 C0.33 0 0.66 0 1 0 C1.33 2.31 1.66 4.62 2 7 C2.66 7 3.32 7 4 7 C3.67 7.99 3.34 8.98 3 10 C0.4375 7.75 0.4375 7.75 -2 5 C-1.87165745 2.68983403 -1.63394255 1.63394255 0 0 Z " fill="#E58548" transform="translate(130,508)"/>
<path d="M0 0 C0.33 0.66 0.66 1.32 1 2 C0.34 2 -0.32 2 -1 2 C-1 3.65 -1 5.3 -1 7 C-4.75 8.125 -4.75 8.125 -7 7 C-2.25 1.125 -2.25 1.125 0 0 Z " fill="#E98238" transform="translate(198,440)"/>
<path d="M0 0 C0 0.99 0 1.98 0 3 C-2.2551922 5.2551922 -4.0047587 5.97723468 -7 7 C-7.99 7 -8.98 7 -10 7 C-8.70982586 6.01886757 -7.41780894 5.04015801 -6.125 4.0625 C-5.04605469 3.24458984 -5.04605469 3.24458984 -3.9453125 2.41015625 C-2 1 -2 1 0 0 Z " fill="#E88740" transform="translate(254,388)"/>
<path d="M0 0 C8 0.92307692 8 0.92307692 11 3 C11.33 3.99 11.66 4.98 12 6 C7.76570244 4.68938409 3.92592596 3.05643741 0 1 C0 0.67 0 0.34 0 0 Z " fill="#FDE6C7" transform="translate(360,378)"/>
<path d="M0 0 C0.33 0.99 0.66 1.98 1 3 C-1.64 5.31 -4.28 7.62 -7 10 C-7.66 9.67 -8.32 9.34 -9 9 C-6.03 6.03 -3.06 3.06 0 0 Z " fill="#FFE4CA" transform="translate(182,362)"/>
<path d="M0 0 C0.66 0 1.32 0 2 0 C2 0.66 2 1.32 2 2 C2.99 2.33 3.98 2.66 5 3 C3.35 4.32 1.7 5.64 0 7 C-0.38133299 5.0085944 -0.71325582 3.00720923 -1 1 C-0.67 0.67 -0.34 0.34 0 0 Z " fill="#E78031" transform="translate(147,250)"/>
<path d="M0 0 C1.32 0 2.64 0 4 0 C4 1.32 4 2.64 4 4 C4.99 4 5.98 4 7 4 C8.6875 6 8.6875 6 10 8 C9.67 8.66 9.34 9.32 9 10 C5.06451569 6.93906776 2.31883213 4.50884026 0 0 Z " fill="#E07C36" transform="translate(190,235)"/>
<path d="M0 0 C2.5 1.375 2.5 1.375 5 3 C5 3.66 5 4.32 5 5 C4.34 5 3.68 5 3 5 C2.67 5.99 2.34 6.98 2 8 C0.4375 6.8125 0.4375 6.8125 -1 5 C-0.6875 2.3125 -0.6875 2.3125 0 0 Z " fill="#ED922A" transform="translate(523,127)"/>
<path d="M0 0 C0 1.98 0 3.96 0 6 C-0.99 6.33 -1.98 6.66 -3 7 C-3.99 6.34 -4.98 5.68 -6 5 C-1.125 0 -1.125 0 0 0 Z " fill="#ED8B33" transform="translate(229,67)"/>
<path d="M0 0 C1.65 0 3.3 0 5 0 C4.1875 2.4375 4.1875 2.4375 3 5 C2.01 5.33 1.02 5.66 0 6 C0 4.02 0 2.04 0 0 Z " fill="#E77B2B" transform="translate(428,644)"/>
<path d="M0 0 C-0.33 1.32 -0.66 2.64 -1 4 C-1.99 4 -2.98 4 -4 4 C-4 4.99 -4 5.98 -4 7 C-5.32 6.67 -6.64 6.34 -8 6 C-7.0479279 4.99403703 -6.08812654 3.99538437 -5.125 3 C-4.59132813 2.443125 -4.05765625 1.88625 -3.5078125 1.3125 C-2 0 -2 0 0 0 Z " fill="#FCDEC0" transform="translate(456,624)"/>
<path d="M0 0 C2.26624089 1.13312045 4.10591856 2.53190601 6.125 4.0625 C6.84945313 4.61035156 7.57390625 5.15820312 8.3203125 5.72265625 C9.15175781 6.35494141 9.15175781 6.35494141 10 7 C9.34 7.66 8.68 8.32 8 9 C6.70684939 8.04367001 5.41553147 7.08486149 4.125 6.125 C3.40570313 5.59132813 2.68640625 5.05765625 1.9453125 4.5078125 C0 3 0 3 -2 1 C-1.34 0.67 -0.68 0.34 0 0 Z " fill="#E58136" transform="translate(366,476)"/>
<path d="M0 0 C1.32 0.66 2.64 1.32 4 2 C1.03 4.475 1.03 4.475 -2 7 C-2.6875 5.1875 -2.6875 5.1875 -3 3 C-1.5625 1.25 -1.5625 1.25 0 0 Z " fill="#EC8C2E" transform="translate(659,414)"/>
<path d="M0 0 C0.33 0.99 0.66 1.98 1 3 C-1.31 4.98 -3.62 6.96 -6 9 C-6.66 8.67 -7.32 8.34 -8 8 C-5.36 5.36 -2.72 2.72 0 0 Z " fill="#FEECD7" transform="translate(157,387)"/>
<path d="M0 0 C0.66 0.33 1.32 0.66 2 1 C1.34 2.32 0.68 3.64 0 5 C-2.64 4.67 -5.28 4.34 -8 4 C-5.31143836 2.20762558 -3.0466145 1.01553817 0 0 Z " fill="#E58339" transform="translate(281,375)"/>
<path d="M0 0 C4.35535069 1.16142685 6.64619703 2.07699505 9 6 C8.34 6.66 7.68 7.32 7 8 C5.62437146 6.71034824 4.29233607 5.37310707 3 4 C3 3.34 3 2.68 3 2 C2.01 1.67 1.02 1.34 0 1 C0 0.67 0 0.34 0 0 Z " fill="#FDEBCF" transform="translate(655,258)"/>
<path d="M0 0 C1.31611677 0.95336021 2.62778961 1.91285774 3.9375 2.875 C4.66839844 3.40867188 5.39929688 3.94234375 6.15234375 4.4921875 C8 6 8 6 9 8 C7.02 8 5.04 8 3 8 C2.87625 7.360625 2.7525 6.72125 2.625 6.0625 C2.315625 5.0415625 2.315625 5.0415625 2 4 C1.34 3.67 0.68 3.34 0 3 C0 2.01 0 1.02 0 0 Z " fill="#E27E2C" transform="translate(301,215)"/>
<path d="M0 0 C0.99 0.66 1.98 1.32 3 2 C2.34 2 1.68 2 1 2 C0.67 2.66 0.34 3.32 0 4 C-1.30915279 5.03145371 -2.64082143 6.03542166 -4 7 C-4.99 6.34 -5.98 5.68 -7 5 C-4.69 3.35 -2.38 1.7 0 0 Z " fill="#F18F1A" transform="translate(557,215)"/>
<path d="M0 0 C2.51699845 2.51699845 3.10964078 4.57554146 4 8 C3.625 10.375 3.625 10.375 3 12 C2.67 11.01 2.34 10.02 2 9 C1.34 8.67 0.68 8.34 0 8 C0 5.36 0 2.72 0 0 Z " fill="#FBD5AE" transform="translate(403,147)"/>
<path d="M0 0 C2.64 1.98 5.28 3.96 8 6 C7.01 6.99 6.02 7.98 5 9 C4.896875 8.360625 4.79375 7.72125 4.6875 7.0625 C4.3471875 6.0415625 4.3471875 6.0415625 4 5 C3.01 4.67 2.02 4.34 1 4 C0.67 2.68 0.34 1.36 0 0 Z " fill="#F1922F" transform="translate(496,100)"/>
<path d="M0 0 C2 3 2 3 1.625 5.1875 C1.41875 5.785625 1.2125 6.38375 1 7 C0.34 7 -0.32 7 -1 7 C-1 6.34 -1 5.68 -1 5 C-1.99 4.67 -2.98 4.34 -4 4 C-3.34 3.67 -2.68 3.34 -2 3 C-2 2.34 -2 1.68 -2 1 C-1.34 0.67 -0.68 0.34 0 0 Z " fill="#F5901C" transform="translate(454,59)"/>
<path d="M0 0 C1.65 0.33 3.3 0.66 5 1 C3.35 2.98 1.7 4.96 0 7 C-0.66 6.01 -1.32 5.02 -2 4 C-1.34 4 -0.68 4 0 4 C0 2.68 0 1.36 0 0 Z " fill="#E87725" transform="translate(484,588)"/>
<path d="M0 0 C-0.25 1.875 -0.25 1.875 -1 4 C-3.0625 5.25 -3.0625 5.25 -5 6 C-5.66 5.34 -6.32 4.68 -7 4 C-2.25 0 -2.25 0 0 0 Z " fill="#E8803A" transform="translate(375,575)"/>
<path d="M0 0 C3.79588866 0.54226981 5.47211993 2.20127563 8 5 C7.67 5.99 7.34 6.98 7 8 C5.83035398 6.8572081 4.66435444 5.71068285 3.5 4.5625 C2.8503125 3.92441406 2.200625 3.28632812 1.53125 2.62890625 C0 1 0 1 0 0 Z " fill="#E37E3D" transform="translate(170,554)"/>
<path d="M0 0 C0.33 1.32 0.66 2.64 1 4 C0.01 4.33 -0.98 4.66 -2 5 C-2 5.66 -2 6.32 -2 7 C-3.32 6.67 -4.64 6.34 -6 6 C-4.02 4.02 -2.04 2.04 0 0 Z " fill="#E98846" transform="translate(142,496)"/>
<path d="M0 0 C1.32 1.32 2.64 2.64 4 4 C3.34 4 2.68 4 2 4 C1.67 4.99 1.34 5.98 1 7 C0.01 7 -0.98 7 -2 7 C-2 6.01 -2 5.02 -2 4 C-1.34 4 -0.68 4 0 4 C0 2.68 0 1.36 0 0 Z " fill="#E7822B" transform="translate(484,491)"/>
<path d="M0 0 C0.33 0.99 0.66 1.98 1 3 C-1.31 4.98 -3.62 6.96 -6 9 C-6.66 8.67 -7.32 8.34 -8 8 C-5.36 5.36 -2.72 2.72 0 0 Z " fill="#FFE7CE" transform="translate(172,372)"/>
<path d="M0 0 C2.31 0 4.62 0 7 0 C6.67 0.99 6.34 1.98 6 3 C6.99 3 7.98 3 9 3 C9 3.99 9 4.98 9 6 C5.88802644 4.50164236 2.91164984 2.86022073 0 1 C0 0.67 0 0.34 0 0 Z " fill="#E7813C" transform="translate(247,290)"/>
<path d="M0 0 C3.85714286 3.85714286 3.85714286 3.85714286 5 7 C4.625 9.25 4.625 9.25 4 11 C4 10.01 4 9.02 4 8 C3.01 8.33 2.02 8.66 1 9 C0.67 6.03 0.34 3.06 0 0 Z " fill="#EE922A" transform="translate(672,281)"/>
<path d="M0 0 C4.875 3.625 4.875 3.625 6 7 C5.01 7 4.02 7 3 7 C2.67 7.66 2.34 8.32 2 9 C1.34 6.03 0.68 3.06 0 0 Z " fill="#ED993D" transform="translate(650,253)"/>
<path d="M0 0 C0.66 0.33 1.32 0.66 2 1 C0.02 3.97 -1.96 6.94 -4 10 C-4.33 9.01 -4.66 8.02 -5 7 C-4.67 6.34 -4.34 5.68 -4 5 C-3.34 5 -2.68 5 -2 5 C-2 3.68 -2 2.36 -2 1 C-1.34 0.67 -0.68 0.34 0 0 Z " fill="#FEF0DB" transform="translate(398,202)"/>
<path d="M0 0 C0.33 0 0.66 0 1 0 C1 1.65 1 3.3 1 5 C-1.31 5.66 -3.62 6.32 -6 7 C-5.02433888 5.83040013 -4.044375 4.66438823 -3.0625 3.5 C-2.51722656 2.8503125 -1.97195312 2.200625 -1.41015625 1.53125 C-0.71212891 0.77328125 -0.71212891 0.77328125 0 0 Z " fill="#E88039" transform="translate(95,200)"/>
<path d="M0 0 C3.8665284 3.222107 4.88059018 6.14922412 6 11 C5.34 10.67 4.68 10.34 4 10 C4 9.01 4 8.02 4 7 C2.68 6.34 1.36 5.68 0 5 C0 3.35 0 1.7 0 0 Z " fill="#FDE7CC" transform="translate(395,134)"/>
<path d="M0 0 C0 3.19219704 -0.23605791 4.39608549 -2 7 C-4.625 8.25 -4.625 8.25 -7 9 C-5.44499019 5.18315774 -2.96404505 2.80804268 0 0 Z " fill="#FDDEBC" transform="translate(304,125)"/>
<path d="M0 0 C0 2 0 4 0 6 C-1.98 6.99 -1.98 6.99 -4 8 C-4.66 7.34 -5.32 6.68 -6 6 C-4.02 4.02 -2.04 2.04 0 0 Z " fill="#ED8833" transform="translate(193,102)"/>
<path d="M0 0 C1.32 0.66 2.64 1.32 4 2 C2.87926138 2.83905565 1.75325453 3.67107831 0.625 4.5 C-0.00148438 4.9640625 -0.62796875 5.428125 -1.2734375 5.90625 C-3 7 -3 7 -5 7 C-5 6.34 -5 5.68 -5 5 C-4.01 5 -3.02 5 -2 5 C-1.34 3.35 -0.68 1.7 0 0 Z " fill="#FEF0DD" transform="translate(369,574)"/>
<path d="M0 0 C0 3.61537605 -0.89229241 5.11165997 -3 8 C-3.99 8 -4.98 8 -6 8 C-4.55746343 4.63408134 -2.66735273 2.48952921 0 0 Z " fill="#FCE1C2" transform="translate(622,456)"/>
<path d="M0 0 C0.66 0 1.32 0 2 0 C2.33 1.32 2.66 2.64 3 4 C2.01 4.33 1.02 4.66 0 5 C0 5.66 0 6.32 0 7 C-0.99 7.33 -1.98 7.66 -3 8 C-2.25 3.25 -2.25 3.25 0 1 C0 0.67 0 0.34 0 0 Z " fill="#EDA451" transform="translate(534,137)"/>
<path d="M0 0 C3.91211733 1.15585285 6.8745041 2.35534962 10 5 C9.01 5.33 8.02 5.66 7 6 C7 5.34 7 4.68 7 4 C4.69 3.67 2.38 3.34 0 3 C0 2.01 0 1.02 0 0 Z " fill="#E88E2C" transform="translate(404,19)"/>
<path d="M0 0 C0.66 0.33 1.32 0.66 2 1 C0.1875 4 0.1875 4 -2 7 C-2.99 7 -3.98 7 -5 7 C-3.70700306 4.11562221 -2.34058637 2.12780579 0 0 Z " fill="#FDE2C1" transform="translate(629,449)"/>
<path d="M0 0 C0.33 0.66 0.66 1.32 1 2 C0.06553465 4.03144641 -0.93224776 6.03533587 -2 8 C-2.99 7.67 -3.98 7.34 -5 7 C-3.35 4.69 -1.7 2.38 0 0 Z " fill="#FCE0BA" transform="translate(671,404)"/>
<path d="M0 0 C4.455 1.98 4.455 1.98 9 4 C8.67 4.66 8.34 5.32 8 6 C5.21788056 5.62403791 3.4120716 5.32681541 1.1875 3.5625 C0 2 0 2 0 0 Z " fill="#FEECD1" transform="translate(253,295)"/>
<path d="M0 0 C1.5 1.1875 1.5 1.1875 3 3 C3.1875 5.6875 3.1875 5.6875 3 8 C0 6 0 6 -0.75 4 C-1 2 -1 2 0 0 Z " fill="#F09732" transform="translate(667,272)"/>
<path d="M0 0 C0.99 0.33 1.98 0.66 3 1 C2.67 1.99 2.34 2.98 2 4 C1.34 4 0.68 4 0 4 C-0.33 4.99 -0.66 5.98 -1 7 C-1.99 5.68 -2.98 4.36 -4 3 C-2.68 3 -1.36 3 0 3 C0 2.01 0 1.02 0 0 Z " fill="#E87B24" transform="translate(218,256)"/>
<path d="M0 0 C0 3 0 3 -2.3125 5.6875 C-5 8 -5 8 -8 8 C-5.36 5.36 -2.72 2.72 0 0 Z " fill="#EA9043" transform="translate(237,58)"/>
<path d="M0 0 C1.65 0 3.3 0 5 0 C5 0.66 5 1.32 5 2 C6.65 2.33 8.3 2.66 10 3 C6.18510326 4.46726798 3.70988378 3.43336419 0 2 C0 1.34 0 0.68 0 0 Z " fill="#E27128" transform="translate(298,670)"/>
<path d="M0 0 C0.33 0.99 0.66 1.98 1 3 C-0.32 4.32 -1.64 5.64 -3 7 C-3.66 6.67 -4.32 6.34 -5 6 C-3.35 4.02 -1.7 2.04 0 0 Z " fill="#E58742" transform="translate(380,568)"/>
<path d="M0 0 C1 3 1 3 0 6 C-1.65 6 -3.3 6 -5 6 C-3.35 4.02 -1.7 2.04 0 0 Z " fill="#E88743" transform="translate(150,488)"/>
<path d="M0 0 C2.0625 0.4375 2.0625 0.4375 4 1 C1.03 3.475 1.03 3.475 -2 6 C-1.125 1.125 -1.125 1.125 0 0 Z " fill="#FEE9CF" transform="translate(510,476)"/>
<path d="M0 0 C0.66 0.33 1.32 0.66 2 1 C1.34 2.65 0.68 4.3 0 6 C-1.32 4.68 -2.64 3.36 -4 2 C-2.125 0.9375 -2.125 0.9375 0 0 Z " fill="#EA8324" transform="translate(470,376)"/>
<path d="M0 0 C0.66 0.33 1.32 0.66 2 1 C0.29374499 3.78388975 -0.47626739 4.85384206 -3.6875 5.75 C-4.8321875 5.87375 -4.8321875 5.87375 -6 6 C-4 4 -2 2 0 0 Z " fill="#FDE6C8" transform="translate(388,288)"/>
<path d="M0 0 C1 3 1 3 0.0625 5.1875 C-0.4634375 6.0846875 -0.4634375 6.0846875 -1 7 C-1.99 7 -2.98 7 -4 7 C-2.92598892 4.08482708 -2.22189824 2.22189824 0 0 Z " fill="#E3813E" transform="translate(30,266)"/>
<path d="M0 0 C0.99 0.33 1.98 0.66 3 1 C-0.465 3.97 -0.465 3.97 -4 7 C-4 5.68 -4 4.36 -4 3 C-2.68 2.67 -1.36 2.34 0 2 C0 1.34 0 0.68 0 0 Z " fill="#FEE9CB" transform="translate(536,230)"/>
<path d="M0 0 C1.32 0.33 2.64 0.66 4 1 C0.535 3.97 0.535 3.97 -3 7 C-3 6.01 -3 5.02 -3 4 C-2.34 4 -1.68 4 -1 4 C-0.67 2.68 -0.34 1.36 0 0 Z " fill="#E7872A" transform="translate(476,196)"/>
<path d="M0 0 C1.65 1.65 3.3 3.3 5 5 C4.01 5.66 3.02 6.32 2 7 C0 5 0 5 -0.125 2.375 C-0.08375 1.59125 -0.0425 0.8075 0 0 Z " fill="#F09023" transform="translate(505,109)"/>
<path d="M0 0 C0.66 0 1.32 0 2 0 C2.1875 2.8125 2.1875 2.8125 2 6 C1.01 6.99 0.02 7.98 -1 9 C-0.67 6.03 -0.34 3.06 0 0 Z " fill="#EA975E" transform="translate(393,539)"/>
<path d="M0 0 C2.475 0.99 2.475 0.99 5 2 C4.67 3.65 4.34 5.3 4 7 C0 2.25 0 2.25 0 0 Z " fill="#E77A2E" transform="translate(387,500)"/>
<path d="M0 0 C1 2 1 2 0.375 4.0625 C-1 6 -1 6 -3.625 6.75 C-4.800625 6.87375 -4.800625 6.87375 -6 7 C-4.02 4.69 -2.04 2.38 0 0 Z " fill="#E98645" transform="translate(181,457)"/>
<path d="M0 0 C0.5534764 2.07553648 1 3.84365964 1 6 C-0.98 6 -2.96 6 -5 6 C-3.35 4.02 -1.7 2.04 0 0 Z " fill="#E98C37" transform="translate(536,454)"/>
<path d="M0 0 C1 2 1 2 0.375 4.0625 C-1 6 -1 6 -3.625 6.75 C-4.800625 6.87375 -4.800625 6.87375 -6 7 C-4.02 4.69 -2.04 2.38 0 0 Z " fill="#FDE4C3" transform="translate(661,417)"/>
<path d="M0 0 C-0.99 1.485 -0.99 1.485 -2 3 C-4.31 2.34 -6.62 1.68 -9 1 C-5.64919071 -1.10976881 -3.77897651 -1.0497157 0 0 Z " fill="#ED8E29" transform="translate(306,14)"/>
</svg>
